/* XPM */
static char *_5529dbd13514134a6a7107de0e03828nQj2AGr0oM9Ve43C[] = {
/* columns rows colors chars-per-pixel */
"64 64 48 1 ",
"  c #30302F",
". c #343433",
"X c #373837",
"o c #383837",
"O c #3D3D3C",
"+ c #403F3E",
"@ c #3F403F",
"# c #41403F",
"$ c #3F4040",
"% c #444444",
"& c #484747",
"* c #474847",
"= c #484847",
"- c #474848",
"; c #4A4B4B",
": c #504F4E",
"> c #4F504F",
", c #51504F",
"< c #54524F",
"1 c #4F5050",
"2 c #525353",
"3 c #555351",
"4 c #555452",
"5 c #535454",
"6 c gray34",
"7 c #585654",
"8 c #585755",
"9 c #5A5957",
"0 c #5C5A57",
"q c #5B5B5B",
"w c #5C5B5A",
"e c #5D5C5B",
"r c #5B5C5C",
"t c gray36",
"y c #605F5E",
"u c #61605F",
"i c #636261",
"p c #646362",
"a c #686766",
"s c #686969",
"d c #959595",
"f c #999A9A",
"g c gray72",
"h c #C6C6C6",
"j c #C6C7C7",
"k c LightGray",
"l c #D5D5D5",
"z c gray85",
/* pixels */
"%%jzt%%%%%%%%%%%%%%%%%%;%%%%%%%%%%%%%%%%%%%%;;;%%%-;%%;%%;%tzj%%",
"%2kzt%%%%;%%%#%;%%%%%%%;6%%%;;;%%;%;;1%%%%%;%;;%%%;%%;%*-;%izk6%",
"jlzzq%%%%;%%;%%;-;%%+%%;;%%-;;%%%%2%%%%;%%%%;;%%%;%;%=O--%;6zzkj",
"zzzd%%%;;;%;%%;%;%%%#%;;%-%%%;%;%%%;-;%%O%%%=;;%%;;%%%@;-;-;fzzz",
"tq6%;%%;;%;%%;%;-%%%%+%%;-%%5%%%%-%;%%;;%%%%%+%%;%%;%%%%%%-%%6qr",
"%%;%%%-%%%%%%%%%&;%%%#%%+%%;%;%%%%%%%.%%%%%%%%%%%%;%%%%%%;%%%%;%",
"%%%%%%%%;%;-%%%;-%-%%%%%%%%%%;1%%%%%;+oO%%%-%%%%#%O.$;%%-%;=2;%%",
"%%%;-;%-%%%1%%%;;;1%%%;%2;;%-%%1%%%;%;O.%%O$O%2%%;%O%%;%%%;%%%%%",
"%%%%;%%;%;%%;%%%;%-%%-%%;%%2%%%%;;%;;;O..%%%%%%;;%;O%%;%%%%%-%2%",
"%%%%%;;%;%%%;+-%%%%%2;%%%;%%;%%%%%%;%oO.O;%;%%%%%;1@-%%%%%%%;%%%",
"%%%%%%%;;%%%%;%%%%-%%%#;%%;;%%%%=;4=%:+;6;;%%%%%%%;%%%%-%%%%%%%;",
";%%%%%%%;%%-%%;%%%O%%;;#%%%;-;-%%%%;8&896w46%%%%%%O;%%-;;%%%%%%%",
"-2%%#%%%%;%%%;;;-%%;%;*%%%%%1%%%%;988;664a89%;%%%OO%%%%;;;%%;%%%",
"%%%;%%%%%%%%%;%%;;%%2;%;%%%%%%%%O59q8;68q6t84%%;%%%;%%%%1%%;%%%%",
"%%%*%;;%%;;%%%;%%;&9ww%;%%%;+%%%O%>ue38w4w4tw22;%%%%;%%%%;;;%%%%",
"%;-%;;%%%%;%%;%;;%2,;;,%OOO%%;%%%.;98e8638488y6,;%O;%;;%%%%%%%%%",
"%%%;;%%%%;;;;%;%%%642.%;%1%;%%;%O ;9w9q6q36896y4w%%+%%%;%%%%%;%%",
"%%;;;%;%;%%%%;%%%;80;4;%%-&%*%%%%.%3e9u466848886e%;%;;%;;-;%%%%;",
"%#%%%-%%%%;%;%;*;%42;;%;%;%%#%;;;%%w88664444uqyw68%;-%2;%;%%;%%#",
"%%;%;;%;%%;%-%%%%;;O;;%%%;%&%%%%O;%%;6qt4<8w89itq42;$%;*%;%6%;;%",
"%%%%;%;%%%%%;%OOO;OO%%%%%%-;;%O%;;;%8e3q48468y449y4;O%%;%%;%;%+%",
"%%*;;%%%%2%%%%%1%;.%#%%%%;%%%O;%%;;%;;6e4,4496tw6wq+O;%;;;%%*%%%",
"%1%%%%%%%%%;%%-%%%o%O+#1;%;O;;;%%%;;%2=&;264996889w#O%%%%;;%%2%%",
"%%;%%;%%%%%;%%%%;%O%O%%;;%-%%2%;;%2%;;%;%4348463ww6%&;%%-%%;2%%%",
"%%;%%%%;;%%%%;%;;O%%+#%=O%%%%;%%%%%%-;%%%66469qeq4t&9O%%%;;%%%;%",
"%%%%%%;;%;-;%%&%O%;%%+O%;-%%2%%%%;;q;%;;;48e6q8y996;8qO%-%;%2;*%",
"%%%;%-%%;%%%%;%%O%;%%O%%%%%;%-26t684%;;%%%;348u68t<qq8;%%%;%%%%=",
"%;%%%;%;%%%;%%%%;;;%%%%%;%;%%;88648,;;-%%%%#;8qqeqq,68%%%%%+;%1%",
"%%%%2%%%%%%%;%%O%+%O-%;%%%%;%%3t868;;;%%%=%;;%:2;8i;;62%%%%%;%;%",
"%%%%%;;;;%%%;OOO%%%%6;-%2;%226q8983;%%-%%&;%%%%%%;;%O%;;%%%%%%--",
"%%%%%%%;;%-%O%O%%%-%%%O;%%qwe886qq69%%%@;;-O%;%%%-;%%O#;;%%%%%%%",
";%%;%%%%;%%%O%%%%%+%%;;#%%6tqwq869q;%%%%%;%6%%%%%%%;%%%;%;%%%-%%",
"-2%%%%%%%;%$%;%;%%%;%&%;2686u639499;%%%%+1%%%;%%%%%%%-%%%;%%;%%%",
"%%%;%%%%%%%%%;O%;;%%;6,8464w4q966t86;%%%%%;%%%%;%%%;%%%O2%%;%%%%",
";%%%%;;%%;%X%%.%%;%;-%4q66464946q9qq%;%%O;#;%;1%%%%%5%%O%;;;%;%%",
"%;;;;;%%%%;.%;O%;;%%%;,w6t9q8q9848w&%;%%%%%;%;%;%%%%%;%%%%%%%%%%",
"%%%:;%%%%;;%%%;OO%%;%29twq98q6w96q4%;%;%%%%%%;;%%%#%%%;O;%%%%%%%",
"%%;%%%;%%%%%%;%%Oo%;%;6e9e9948eet4*;%%%%%%%%;;1%;%&%%%%-;%%%;;%%",
"%%%%%;;-%%;%%%%%;%%=#;88eew086886;;%%%%;%%%%%%%%;%;2q2%%%-;%%%%%",
"%%;%%;%;%%%#;%;%%%26;%634q6wy3669;%%;;%;O%%%;%;%%;26q,;;;%%%;%%+",
"%%%%2-;%%%%%;;%%%2;;8:%;4t98w4;%%;;%%%%%;O%;66;;2;w9q39;%%%;%%;%",
"%%%%%%%%%%%%%#%%%%%%36482;e86t2%;%;%%;;;%%,866,49648883%%%%%;%%%",
"%;;;;%%%*;%*;%%2%;%%:44tq8,3;,;%%%%;%%%%%O26wqy689qu4;;%%;%;%%%%",
"%;%;%%%;;;%-%;;%-%;:2949y886tw;;%%%%;;%%%O8e6yq88wq23;%-;;%%%;%%",
"%%;%%;%%%%;;%;;%%%:6388p968qe6%;%%;%-;%%+O,2i88w69;;%;%%;-;%%%%%",
"%%;;%%%;;%%%%%%;;24q4,96qt4%q%%%%%-2%%;%%O%%:62284;%%%%-%;-%%;%%",
"%%%%%%;-%;;;%+%%;wt64388443;%%%%%%%;%1#;%OO%%%%%;;%;%;%%=%%;;%%%",
"%%%;%-%%;%%%%;%%;8q693q446%%%;;%;%%%;%;+%%%%%;%;-%;%-%%%%;;%%%;%",
"%-%%%;%;%%%2%%%;ewi883w6iq;%%%%;%%%;%;&;;OO;%%%-%;%%%;%%%&;%;;%%",
"%#%#;%%-%;%%;%%,93q68q64u2%;%%;%%%%%;;%%%%O%%%6%%%%%%%%%%%%%;%%%",
"%%%%%;2%;%%%;%9444q6it4w3;;;;%%%%%%%%%%%;-%O%%%;;%;%%%;%%%%+%%6%",
"%;%%%%%;2%%%;q6686qe88e4;%%;-;%%;%%%%%%;%%@;%#%%%;;%;%%;%%%%;%%%",
";%%%%%%%;%%%%t684664eu;%%%%%;%%%%;;%%%%%%;;%%;%%%%;%%%%%;%%%%%%;",
"%%%;%%%%%;%%%yt8684ww4;;%%%-%%%%%2%%%%%%%;%5%%%%%%%;%%%;%;%%%;%%",
"-1%=+%%%%%%%;y9ew4q294%;%%%;+%%%%-;;;%%;%%%%%;%%%%%%%;%;%%%;%%%%",
";%%%%%%%%;%;;6y69i6;%;%%%;%%%;%%&%;%%;%%%%=%%%%;;%%-;%%%;%%;%%%%",
"%;1;;;;%%%;%%89qwq;;%%%;;*%-%%;;%%%%;%1%%%%;%;;;%%%%;%%&%&;;%%%%",
"%;%%%;%%%%%;%86q9;%%%%%;#%;%%%;;%%OOO%%%%%OO%;;%%%#;%;;%;%%%%%%%",
"%%%;;%%%%-;%;2e6,%%%#%%%%%%%O$OOOOXO%%%;%+OO%%;%;%%%%%%;%%%%=1%%",
"tqr;;%;%;%%%%6;-%%%%OO%+;;-%;%%%%-;%%;%-%;OO%%%%;%;%;;%%%-;%%3rt",
"zzzd-;-%%$%%%%%%%O%%OO$+%;%%%%;%=;;%%%;;%OO.*%%;%;%%%%;;%%%%fzzz",
"jllj%%$%%%%%;%;%%%1%%%%%;%;%%;=%;%-%%;%%;%%.%%;-;%;%%%;*%%%rzzkj",
"%;gls%;%%;%%1;%%%5;%%%%%%%-%%%%%;%%%%--;%%%O%%%%%%%%%%%%%%%tzl5%",
"%%jzt%%%%%%%%%%%%%%%%%%%%%%%%%%%%%%%%%%%%%%%%%%%%%%%%%%%%%%tzj%%"
};
