/* XPM */
static char *__11711648390[] = {
/* columns rows colors chars-per-pixel */
"64 64 134 2 ",
"   c #2D2D2D",
".  c #343535",
"X  c #383737",
"o  c #383837",
"O  c #373838",
"+  c #3D3E3D",
"@  c #403F3E",
"#  c #573F3F",
"$  c #5C3C3B",
"%  c #3F403F",
"&  c #40403F",
"*  c #64423F",
"=  c #3F4040",
"-  c #444444",
";  c #484746",
":  c #474847",
">  c #494847",
",  c #474848",
"<  c #4A4B4B",
"1  c #544542",
"2  c #584646",
"3  c #544944",
"4  c #5B4E44",
"5  c #514E4D",
"6  c #5D4E4E",
"7  c #4F504F",
"8  c #52504F",
"9  c #5D544F",
"0  c #5C5A4D",
"q  c #4F5050",
"w  c #555453",
"e  c #585755",
"r  c #575857",
"t  c #595857",
"y  c #5C5B5A",
"u  c #614545",
"i  c #6B4343",
"p  c #685142",
"a  c #62544B",
"s  c #615D4D",
"d  c #6F594A",
"f  c #755946",
"g  c #625A56",
"h  c #605F5E",
"j  c #6C6256",
"k  c #61605F",
"l  c #646463",
"z  c #6C6D6C",
"x  c #6F706F",
"c  c #727272",
"v  c #7D7D7D",
"b  c #D22F2F",
"n  c #CD3433",
"m  c #D93332",
"M  c #F52D2D",
"N  c #EC332F",
"B  c #F6342E",
"V  c #EE3630",
"C  c #F73A31",
"Z  c #AA543E",
"A  c #D55D3F",
"S  c #DD5C3E",
"D  c #F84433",
"F  c #E15F3E",
"G  c #FC5539",
"H  c #F45B3A",
"J  c #FD5B3B",
"K  c #F6633D",
"L  c #FF643D",
"P  c #FF693F",
"I  c #807F7F",
"U  c #D65E40",
"Y  c #CF6041",
"T  c #D56041",
"R  c #DA6142",
"E  c #FF6C42",
"W  c #FF7144",
"Q  c #FF7B45",
"!  c #CF8851",
"~  c #D38653",
"^  c #DC8B50",
"/  c #CD9152",
"(  c #FD834A",
")  c #FF8D4D",
"_  c #F7924F",
"`  c #FF954F",
"'  c #FE8855",
"]  c #F79250",
"[  c #FF9450",
"{  c #FF9D52",
"}  c #DCA95B",
"|  c #EDA15C",
" . c #E1AE5C",
".. c #FFA254",
"X. c #FFAD57",
"o. c #FDA45B",
"O. c #FFA95E",
"+. c #CCB567",
"@. c #D3BD69",
"#. c #FFBD62",
"$. c #DFC569",
"%. c #FFC465",
"&. c #FFC866",
"*. c #FFCC6B",
"=. c #FFD76F",
"-. c #FFD86F",
";. c #FED070",
":. c #FFDB70",
">. c #818181",
",. c #8B8B8B",
"<. c #929292",
"1. c #9B9B9B",
"2. c #9FA0A0",
"3. c #A0A1A1",
"4. c #AEAEAE",
"5. c #B3B3B3",
"6. c #BCBCBC",
"7. c #D6D78E",
"8. c #D9D68D",
"9. c #FDD184",
"0. c #FCD986",
"q. c #FDDB8B",
"w. c #FDE48D",
"e. c #FDED8F",
"r. c #FCE691",
"t. c #FDEE91",
"y. c #FDF294",
"u. c #FCF598",
"i. c #FCF89C",
"p. c #C6C6C6",
"a. c #CACACA",
"s. c #D4D4D4",
"d. c #D8D7D7",
"f. c #DADADA",
/* pixels */
"+ + 2.6.r = = + + + = + = = = + = = = + + = = = = = + = = + = = = = = = = = = + + + + + , - = = = = = = + + - + - + = >.6.>.+ . ",
"= - 6.f.z - - - - - - - - = - , - - = - - = - q q - - - q < - - , ; - < - q = - - - , < , < < - - < , , - < : - , < < <.f.2.= . ",
"1.6.f.f.x - - - - < = , , , - q - < - = = - - < < - - - - , - , - , q , , - - , - = - - < < - - - < < - - - % < = - < ,.f.d.5.z ",
"a.f.f.6., - - < < < - , - - , - < - - ; = - < < = - ; , , < - < = - - - < - - - + - & - - , < , - w - - - - - < < , , l a.f.f.,.",
"x c c < - < - , < , < - - < , < ; - - - = + ; - < < - - w = - - - ; , < = - < , = - - - - @ - - , - - : - = - - < - q - r x x < ",
"+ - < - - - , < - - - - - - , - ; < - - - + - - = - - q - , ; , - - - , + . - < - - @ - - - - - - - < - - < - - - < - < - = , O ",
"= - - - - - - - < : < < - - - , ; - < - - = - - = - - - - < < , , - = , , O = = - - - - - < - - % = = . - < - - < - < - w < - . ",
"+ , , , < < , - - - - < - - , , , < q ; ; = < - q < < - , , - < - = , , , , O . < @ = - + , < - < - - + - - : - - - < - - - , . ",
"& - - - 8 - - < - < - - , - - - , = - - ; ; ; = , - = q = , = - < - - < 5 - + X . - - - , - - < < < = + - - - - - - - - - , 7 . ",
"+ - - - - < < - < - - - , - - - - - < - 5 < - - q < - - < - , - - ; - ; - X .   @ ; - > - - - - < - - - - , , - - - - - - - < . ",
"- - - - - - - < < - - = - < - - - - , - ; , = , = - < < , - - - 5 ; w , - ; + : r - 5 - - - - - - < - - - - , < - - - - - - < . ",
"- < - - - - - - < - - - - < - - = - + ; - , < = - - - q , , , - - - - < e < t t e w w < - - - - - - = - = - < - < , - - - < - . ",
"- w = - - - - - - < - - , < < < , - - , : : < - - - - - < - - - = < e e e 5 w e e l y w : : - - - + = - - , - < q < - - - - - . ",
"% : - , - - - - - - - - - < , , , < , ; 5 : - , - - - - , - - - = 8 y r w 5 e e y w h w 5 - - < - - - < - - - , < - , < - - - . ",
"- , - < - < : - - < - - - - < - - , , r y t - < - - = < @ , - - + , 8 l y w e t e y w h y < 5 - : - = - < - - - - - < < - - + . ",
"% < < < < < - - - - < - - , - < < , 8 5 8 5 < - + = + = - < - - = X < t r h w w w e w e y y w 5 - , - < , < < - , - = - - - - . ",
"= - - < < - - - - , < < < - < - - - w w 5 . ; < - < < < - # V K H b 5 e y e e t e w e w t e h e y - = @ - - - - < - - - < , - . ",
"+ - < - < - q - , - - - - < - , - < w y > w < > < : , - u N L L L J n w y t h w w e e w e e t r w , , - : < : 5 - - < - , - - . ",
"= - - - , < , - , - < - < , , - < - w w < < - < - < < - $ B L L L J m e e e e e w w w e h e h e w 8 - < - - w < - - - , < = @ . ",
"= - - - , , , < - - - - < - - - - < < O < > : & < < - - * C L E L E S < w e t h w w y e t h h y r w 5 , - , , < - < q < ; : : . ",
"= - - - < - , - - : - - < - + - + < o + - & - - - < < a | r.#.r.%.w.#.+.t y w t 8 w e w y h e e r h h @ + - : < = - < , < @ - . ",
"= - , < < - - - , < - = - - - < - > X - & & - & - < - s :.*.t.&.y.*.r.^ < 5 y t w 8 e w y e y t w y w X @ - - , 5 ; - , - = = . ",
"+ < - , - - = = - - - < - - , < - - O - @ @ - 5 q - < 3 O.t.*.u.&.u.*.8.- 5 < : w 8 e w e e e e e r e - + - - - , , < - - ; - . ",
"+ - , , - , - - - : - < - - < - < - O - + < - < 5 - e { u.&.u.%.u.&.y.&.@.< < < - w 9 w e w e w h e 8 < @ < - - , = < 8 - - - . ",
"- - < - - - - < < , < - - < - < < + - - + + < - + - 0 :.&.u.&.i.&.u.&.y.} 7 = = < e e w e y t h e w e < w + = - - q , - - - , . ",
"= - - - - - , - - < : < - - - - + - - - - + + - < 0 -.&.u.&.u.%.u.&.u.*.r.R < q , e e y w y y y e e 5 w e , - - 5 - 5 - q q - . ",
"- - - - , , - - , - - - - , - , & - < - : + - - @ 1 B W #.t.%.y.%.t.#.q.K n < = - - , w e y k e y t 5 y e e - - - - , - - - , . ",
"+ - < - , < , < - - - < - - - , < < < - - - - = < 2 B L E E E E E E E E J n < = < - - - w w r y h h 8 w e w - - = - - - , - < . ",
"- - - - < - - , , , , - , - = O - - - % - < < - < i C L L L L L L L L L L S 1 - < - - < - , < q w r y - 8 r < = - - - - , ; < . ",
"+ - - - - > q , < - - - , O + + - & - - w < - - 6 B L L L L L L L L L L L J n @ - - < - - - - - - 5 - - O , , 5 = - = - - - q . ",
"- - - - - - - < < - - = O < + - - - > - - - - < # B L L L L L L L L L L L L Y = 8 , , = - : - - - < , = = O < - < , - - = - - . ",
"- , - , - - @ - , - - - + < - - @ - @ , , , < @ 4 ] P E L L L L L L L L P ' 7.: - 5 w < - - - - , - - < - - , , < < = - , , - . ",
"- w - - - - - - - < - + - < - < - - : - - ; > 5 { :.&.r.E E E E W P E Q *.y.&.$.- < - - - - - - - @ - - - < + < < - , - : - - . ",
"+ - - , - - - - - - - - - < O - < < - - < w 9 j :.O.u.*.y.&.y.&.y.*.y.&.y.*.t. .1 ; w - - - < < - - < - - - + - < - - < - - - . ",
"- - - < - < < - - - < . - - O - - : - : > 4 ` ` o.y.*.y.*.u.*.y.*.y.*.t.*.t.*.q.L F 1 < 8 < < - - - - - < - - + - < < q - - @ . ",
"= < - < < < - - - - : . - < + - < < - - 3 ` ` { *.*.t.;.t.&.y.*.t.;.t.=.t.=.0.( L L A - : - : < - , - < , < - + - - - - = - - . ",
"= - - < < - - - - < < - = - < + + - - - f ` ` ( W r.;.t.;.y.*.y.;.e.=.e.;.w.` B J L R 3 - < < - < - - - - < , + < - - - - - - . ",
"= - 8 - , - < - - - - - = q - - + . - 4 _ ` ) M L W r.#.y.&.y.&.t.*.t.*.w...G M B L L A - < < - < - , , , : , < : @ , : < , - . ",
"= = = - , < < , - - < - - - , - > - - d ` ` ) M L L L W #.w.#.w.#.w.#.9.L L G M C L L A 3 - 7 - < - < w e < : - - < - - , - - . ",
"= - , - - , - < - - - - < - < - - > e ] ` ` ) B L L L L L L L L L L L L L L G M C L P E T - - - - w w e e < < < @ - - : - , = . ",
"= - - - q , < - : - - - < < - - - 8 9 _ ` ` ` C L L L L L L L L L L L L L G M M D W ` ` ~ w < w w 8 h e e h < < - - , < < - < . ",
"= - - , - - - - - , - - - - - , - - p _ ` ` ` ) C P P J L L L P L L L J G C C D ` ` ` ` ^ g w w r w e e e e < - - - - - < = - . ",
"= < : : < - - ; - < @ < < , - w - 8 ` ` ` ` ` ` ` ` ) D E E P P E E L C G ` ` ` ` ` ` ` ` ~ y r e y r h e - < = , < < < - - = . ",
"+ - - < - - - , , < - - - - , - < > ` ` ` ` ` ` ` ` ` [ ` ` ` ` ` ` ` ` ` ` ` ` ` ` ` ` ` ~ w r r y e < w , - 8 - , , - - - - . ",
"- - , - - < - , - > < < - < - , - > { ..{ { { { { { { { { { { { { { { { { { { { ..{ { { { ! y t e w , ; - , - : < - , , - = - . ",
"+ - < , - - - ; < - - - - - - < < 9 X.X.X.X.X.X.X.X.X.X.X.X.X.X.X.X.X.X.X.X.X.X.X.X.X.X.X./ < w e 8 - - - - , - , , < , , , - . ",
"- - - - - - ; - - < < < < @ - > < g R R R R R R R R U U U U U U R A A A A U R A A A A A A Z - = 8 - ; < , 5 - - - - , < - - - . ",
"+ - - < , , , - : - - - - > - > < y y t y w y w r w - - < - < - - - - - - - > - < + + - - < < 7 ; - < - , - = : - < < , < < - . ",
"+ ; , - , , = q - = - , - - - < h e y e y w t w y t : : - - = < - - - < < , < q , + = < - , ; - , ; - - - , , - < - < - , - < . ",
"= - - = 5 - - , , , - - < - < w w w y w w t t w k 8 - < - - < - ; - - - , , , = ; = = = - , < - - < - ; - - - - = - - - , - - . ",
"+ - - ; - ; q , < - - - < ; y w e w e t l y 9 y w - < < < - = - ; - - - - + ; = w , = ; < - - < < - , - - ; , - , = - = - - w . ",
"- - - - - - - < q = - = ; y r r e e e e t y w 5 - - - < , , , - - ; ; = - - , - , = ; - - - + - , , , - , - - , - - - - , - < . ",
"; , - - = , - , < - - ; - r r r w e w w y h - , , - - - < - - - - , , , - - - - - , , = ; ; - - , < , = - - , ; < - - - - - - . ",
"= 5 - , = - - = = < - - < y y y t e w y y t q - - - - < - < - - = q , , ; - = , , < , < - - - - - - - , - - , < 5 < - - , , - . ",
"= < = , - - - - - - - - 5 h y y t t e w 8 < = , - - + - - - = - , < - < ; , - - - = , - , - - - = - , ; = , - - , - , , - = - . ",
"- , = , - q - - - ; - ; q w k w e h w < , < - , - < - - - < - - - - < ; - < - - ; - + , < < < < < - - - < - - - , , , ; - , = . ",
"+ , < q , - , - - - < - , r w h h y < < - , - 8 < , - - , - < - - , - ; < , < - - - + - - - , < - , - - - ; , - - , - < - , - . ",
"= , - , ; , , = - ; , < , w w w e - - - = = - < - , , , = - < , + + O . + - - - - = + + ; , < - , - - < , < , - 5 - - = - = - . ",
"= - < - < - , , - ; - - < q y w < @ - - + @ - @ - - , - - = = = O = - = - - , < - = O = ; , < - < , ; - - , , q - = < ; , , - . ",
"c I v y , , q , - - - ; - q ; ; < - = = + @ = @ - - - - , - , - , - , ; , < - , - ; O + - - < - , - , , ; , < , = < , - z v I r ",
"a.f.f.p.q < , = = = - = 5 , , = - + < - + + - - - < - , , = , = , < < - - - < = , + + . , , , < - , - - , - - , - = - l s.f.f.,.",
"<.4.5.p.h = = < - - < - , - , - - < , - , = = - < < w - , < ; = < - - - - < < , , - - . = - < , < - < ; - < , , - - , <.f.s.3.l ",
"= = 6.f.x - < - , < - , q , - - - < q - - - - - - - - - = - - - - , - - - - - - = - = + - - - = - - - - - - = , = , , <.f.1.; . ",
". . v 1.w O O O O O O O . O O O O O O O O . . O O O O O O O O O . O O O O O O O O O O O O O O O O O O O O O O O O O O l 1.z O   "
};
