/* XPM */
static char *C_11711648389[] = {
/* columns rows colors chars-per-pixel */
"64 64 105 2 ",
"   c #2C2C2C",
".  c #323232",
"X  c #383737",
"o  c #383837",
"O  c #373838",
"+  c #3C3C3C",
"@  c #403F3E",
"#  c #4A3E3E",
"$  c #5C3D3D",
"%  c #3F403F",
"&  c #40403F",
"*  c #3F4040",
"=  c #374C4C",
"-  c #3B4B4B",
";  c #3D5151",
":  c #3B5F5F",
">  c #3C6565",
",  c #337D7D",
"<  c #444444",
"1  c #484746",
"2  c #474847",
"3  c #484847",
"4  c #474848",
"5  c #4A4B4B",
"6  c #534545",
"7  c #5F4241",
"8  c #534847",
"9  c #514E4D",
"0  c #584B4B",
"q  c #52514F",
"w  c #435454",
"e  c #4F5151",
"r  c #4B5F5F",
"t  c #555453",
"y  c #585755",
"u  c #505857",
"i  c #595857",
"p  c #525B5B",
"a  c #5C5B5A",
"s  c #614343",
"d  c #615654",
"f  c #605F5D",
"g  c #61605F",
"h  c #486E6F",
"j  c #586261",
"k  c #567D7F",
"l  c #5C7C7C",
"z  c #646463",
"x  c #6C6D6D",
"c  c #747474",
"v  c #7A7A7A",
"b  c #863939",
"n  c #9B3D3E",
"m  c #C53433",
"M  c #EF2C2C",
"N  c #F22E2E",
"B  c #FE2B2A",
"V  c #F6302D",
"C  c #EB3535",
"Z  c #F53230",
"A  c #BB5F5E",
"S  c #9F6F6D",
"D  c #8E7A79",
"F  c #917777",
"G  c #987374",
"H  c #907877",
"J  c #917878",
"K  c #9E7B7B",
"L  c #A06E6D",
"P  c #AC6B6B",
"I  c #B76666",
"U  c #B96463",
"Y  c #B36B6A",
"T  c #A67675",
"R  c #A07877",
"E  c #A27A7A",
"W  c #D54C4D",
"Q  c #CD5353",
"!  c #C25D5D",
"~  c #5C807F",
"^  c #2A8585",
"/  c #338585",
"(  c #378887",
")  c #368988",
"_  c #398988",
"`  c #2D9493",
"'  c #2A9C9B",
"]  c #319695",
"[  c #35A5A5",
"{  c #449F9E",
"}  c #529D9E",
"|  c #748C8B",
" . c #838383",
".. c #8B8987",
"X. c #8C8B8A",
"o. c #958383",
"O. c #908887",
"+. c #819493",
"@. c #9D9D9D",
"#. c #A4A4A4",
"$. c #AAAAAA",
"%. c #B2B2B2",
"&. c #C2C2C2",
"*. c LightGray",
"=. c #DADADA",
/* pixels */
"+ + $.%.e + + + + + + + + + + + + + + + + + + * + + + + + + + + + + + * + + + + + + + + < + + + + * + * o * + + * + + X.%.z +   ",
"< 2 *.=.a < < < < < < < < * 4 < < < * < < < 2 5 e < < < 5 9 < < 4 4 4 5 4 e * < * < 4 4 5 e < < < 5 4 4 4 2 < < 4 5 e $.=.X.* . ",
"%.&.=.=.f < < 2 < 5 * 1 5 4 < e 2 5 < * * < < e 4 < < 4 4 5 < 4 < 4 5 4 4 < < 4 < * < < 5 1 < < < 5 e < < < * 5 < < 5 #.=.*.%.z ",
"=.=.=.$.< < * 2 4 4 < 4 < 4 < < 5 < < 1 * < 1 5 < 4 < 4 4 5 < 5 < < < < 5 < < < % < @ < < 5 5 5 < t < < < < < < e 4 < c =.=.=.v ",
"v v x 2 4 4 < 5 4 1 4 1 < 5 5 4 1 5 < * & < 1 4 4 4 < 1 e < < < < 5 4 e 1 4 < 4 < < * < < & < < 5 < < 4 < + < < 5 < t < p v c 5 ",
"< < 5 < < < 2 2 4 < < < < < 1 4 5 1 < 2 < * 1 * * < 1 4 < < < 1 < < 4 < X X < 5 % < < < < * < < < < 5 < < 5 < < < 1 < 5 < < < . ",
"< < < < < < < < 4 < 5 5 < < < 5 1 < 4 < < * < < < < < < < 4 9 5 < 1 * 4 1 X < * < < < 4 < 5 2 < + < * X 5 < < < 5 < 5 < e 5 < . ",
"< < < 2 2 5 < 2 < < 4 5 * < 4 1 5 5 e 1 1 * 4 4 5 5 5 < 5 < < 4 < * < < 4 1 X + 5 * + < % 5 5 < 5 < * + < < 4 < < 2 2 < < < 1 . ",
"< < * < 9 < < 4 < 4 * < 5 < < < 4 < < * 5 1 < < 4 < < 5 * 2 * 2 5 < < 1 9 < X . O < < < 5 & < 5 5 5 @ @ < < < < < < * < 2 1 5 . ",
"* < < < < 4 e < 4 < < < 4 @ 4 @ < * 1 < 9 4 < < e 2 < < 2 2 2 < 4 < < 4 < X X . 4 < < 5 & < < < e < 4 < < 4 1 * < < * < 2 2 2 . ",
"< 4 < < < < 4 4 e < < < 1 5 < < < < 1 < < 1 * 5 < 4 e 2 2 < < < 5 1 y < 1 < * 1 i < e < < < & < < 5 * < 4 < 4 5 < < < < < < 5 . ",
"5 < < < < < @ 4 4 < < 4 * 4 4 < * < * 4 5 5 5 * < < < 5 e 2 1 < < < < 9 t 1 a y t t t < 5 < < < 4 < * < < * 5 < 5 < < < < 4 < . ",
"4 e < 1 < < 1 < < 5 * < 4 4 5 5 < < < 4 5 < 4 < < < < < e < < < * 5 y y y 1 y t i z f t 1 < < < < @ < < < < < 5 9 5 < < 4 < * . ",
"< 4 < 4 @ < < @ < < < 1 < 5 4 4 5 4 4 1 e 2 < 4 < < < < 2 < * < * y a y y 5 y y a t f t 5 < 3 3 * < < < < 4 < 4 4 < 4 < < * < . ",
"4 4 < 1 4 9 4 < 1 4 < < < < 5 < 1 5 1 a i y < 2 * < < 1 * 2 < < + 5 y g y 9 a i i y i a a 5 t < 4 < * 4 4 < < < < 9 2 e < 4 * . ",
"1 5 4 4 4 5 4 1 @ < 5 < 4 4 < 5 4 5 q 9 5 1 5 1 + < + < < 5 < 1 + + e y y g t t t y y y a t t 5 4 4 * 5 4 1 4 < 2 < < < < < < . ",
"< @ < 5 4 < 1 < * 5 4 5 5 < 5 * < < y t 5 + 1 1 < 5 5 2 < < 5 < o X y t f i y a y q y y y a a y t < * @ < 1 2 1 4 < < 1 4 4 < . ",
"< < 5 4 4 < 5 < 2 < < < < e < < 4 5 y a 1 y 5 5 5 5 1 < 2 < 1 * < o 3 i i a i y y t y y y t i y 9 4 4 < 1 4 4 5 < 1 4 < 1 * 4 . ",
"< @ < < 4 4 4 1 1 < 4 < 1 4 1 4 4 1 y 5 9 5 < 5 < < < < * < 5 5 3 < 5 a i y t y t y t y f y g y t e < 5 < < e 5 < 2 < 4 4 < + . ",
"< < 4 < 4 4 4 5 < < 5 * 5 1 4 < < 5 4 @ 9 < < * 5 5 5 1 < < < * < < < < t t i g t 0 a i a f f f t t e 1 * 5 1 4 < 4 t 4 1 5 < . ",
"@ < < < 5 < 5 < 4 4 < 1 4 1 * + * 5 X + < < < < < , ' ` ] ` ; < < 5 5 4 a i i i t t i t a a y y i a a X * < < 9 < < 4 4 5 @ < . ",
"< < 4 4 5 1 < < < 9 * < 4 < < 9 < < . < < + < @ > ' < 1 * - ' @ 5 5 4 < 5 q f q t q t i a y a y t f 0 X * < 1 4 5 < 4 1 < * < . ",
"< 5 < 4 < * < < * < < 4 < 4 4 4 2 < + < < + 4 / [ h 6 # 6 0 { , _ ) _ ) ( ( ] : q q t y y a y t t g 9 < * < 1 * 5 4 5 1 4 1 < . ",
"@ < 4 4 < 4 * < 1 4 < 5 < < 4 < 5 * o < % 4 / P C V N M M N C C C C C C C C W { 5 t t t t t y t g t 5 5 * 5 * 1 4 < 5 5 < < * . ",
"1 < 5 1 < < < 5 5 < 4 < < 4 4 5 5 + < 2 + @ k B B B B B B B B n $ 7 7 s s 7 m G w y y y t a a a y y 9 t 5 @ * 1 < 5 4 1 < 2 4 . ",
"< < 1 * < < 4 4 4 4 5 5 < @ 4 < + < 2 < < @ l B B B B B B B B b 1 8 8 d 8 6 m S w y y a t a a a y y 5 t a < < < 5 4 5 1 e 5 * . ",
"< < < 4 4 4 < < 4 < 1 < < 4 < 4 * < 5 < < o l B B B B B B B B B B B N B B B B S = < 5 t y f f t g y 9 a y t 1 * < 1 4 < < < 5 . ",
"< 4 < < 1 4 1 5 < * 4 5 < < 4 * 5 4 t < < < l B B B B B B B B B B B B B B B B S w < 2 < i y a a f g t t y 9 * 1 < < * < 1 4 4 . ",
"< @ @ < e < < < 4 5 < < 5 < + @ < < < + 4 2 l B B B B B B B B B B B B B B B B S w < * 5 < 5 9 e t y a 1 t i 4 & < < < 1 < 4 5 . ",
"* 4 1 4 < 1 e 4 5 < < 4 5 X * * < & < < t 5 l B B B B B B B B B B B B B B B B S ; 2 5 < * < * < 1 5 2 < X 5 5 5 * < < < 4 < 5 . ",
"4 < < < < < 4 4 5 < < @ X 4 * < < < < < < < l B B V V V B B N B N Z B B B B B L r < 4 * 1 2 < < 2 5 < * * X e < 5 < < < * < 1 . ",
"5 < < 4 * < @ 4 5 < < < < < 4 < @ < @ 5 5 < l B B J E U E B R ! ..T ! Q B B B L ; 5 y 5 1 * * < 5 < 2 4 < < 4 1 5 4 * < 1 4 < . ",
"4 e < < * < 2 < < 4 < + 2 5 < 5 < * 1 < < * ~ B B +.K Q X.B X.Y +.T U ! B B B L ; 5 1 * 2 < < < < < < < < 1 * 4 5 < 4 1 2 * < . ",
"< 1 < 4 < < < < < < < * < 5 o < 5 5 < 2 5 y l B B O.C Z X.B X.Y Q N A ! B B B L - * t < < < 1 2 < < 4 2 < < + 2 5 < 4 < < < < . ",
"4 1 4 5 1 5 4 < < 1 2 + < < X < < 4 * 5 2 1 ~ B B U B B I o.! Q o.R W X.T B B L w < < 5 e 5 5 < 4 * < 2 5 < * < < 5 5 e < 4 * . ",
"< 5 4 4 5 9 < 2 < < 2 X 2 1 + 5 4 e < < < 4 l B B B B B B B B B B B B B B B B L = < < < 2 < 2 4 2 5 < 5 1 1 < * < < < < * < * . ",
"< < * 5 5 < 2 < < 5 4 < < < 5 + + * < 1 & t ~ B B B B B B B B B B B B B B B B L = & < < < 5 2 < 4 * < < < 1 < * e < < * < < < . ",
"< < 4 1 4 < 5 < < < < < * e < < * + & < * 5 ~ B B B B B B B B B B B B B B B B L = * < 1 2 5 5 4 1 1 < 4 4 1 5 5 < * 4 5 5 4 < . ",
"< * < < 2 4 5 1 < < 5 2 < 2 < 2 5 * 4 1 < 9 ~ B B B B B B B B B B B B B B B B L = < < < < * 5 < 4 1 5 i y 4 1 < < 5 4 * 5 < < . ",
"< < 1 < 2 5 < 5 < < 4 * 2 4 2 < < 1 t q 5 1 ~ B B B B B B B B B B B B B B B B S = * < 1 5 < 4 < < t y y t 5 5 5 * < < 1 < 1 @ . ",
"< < < < 5 4 5 < 5 < < 5 5 5 < < < e 5 5 t 9 { C B B B B B B B B B B B B B B B | - + 4 q y t e t e q f y t f 5 5 < < 5 4 5 1 4 . ",
"< < 4 4 < < < < < < < < < < < 2 < < < < t t > } D J D F H F F F F F H H F F | ^ * < y y t y t t i t y i y y 5 < < < < < 4 < * . ",
"< 5 1 4 e * < 4 < 5 < 1 5 < < e 4 5 2 * t t y a j p u u e p 4 - w 4 - w - w 4 < + 1 y t f a i y y a i a t < 5 < 5 4 e 4 < < < . ",
"@ < < 5 < < < 4 5 < < < < 1 2 < 5 < 9 t t i t a i y y y p y 4 4 < 1 5 1 2 5 < 4 * 1 y a a f i y i a i 5 t < < 5 < 2 < < 4 * < . ",
"4 < 1 < < 4 < 4 < 5 5 4 < 5 5 < < < q y t y i f t y t f y e * 5 * < 2 < 1 < < < + < 5 y f t a y y q 4 4 4 4 < 4 4 < 4 1 < @ < . ",
"* < 9 4 < < < 5 5 < < < < < < 5 5 t y i t 9 a i a a 9 1 y < 4 < < 2 < e 2 4 1 5 + < < < 9 9 e t y e < 1 < 1 < < 5 1 4 4 4 4 < . ",
"< < < < < < 4 4 < 5 5 5 < < 1 4 t y a t t t y y y e t 5 < 5 1 4 2 < < < 2 5 < < + * < < < < < < t @ < 5 5 5 @ < 4 < 5 e < < < . ",
"< < < 5 4 4 < 1 1 < 5 < < 1 < 3 5 a a y a t y y y t 4 < 4 1 4 1 < < < 2 2 < 4 < < * * < < 5 1 5 < < 5 1 4 < * 1 < 5 4 1 4 5 < . ",
"< 1 < < 4 5 1 5 < * < 4 < < 1 5 g y g y y y i y a y < 1 < < < 5 < @ < 1 e < e 5 < @ * 5 < < < < 5 < < < 4 4 < < 5 < 4 < 1 < < . ",
"< * * < e < < < 4 4 < < 5 < 5 t t t i t y y y y z 5 < 5 < < 4 < 5 < < < 4 < < @ < @ * < < 1 e < 1 5 < 5 < < < < < < < < 4 < < . ",
"< < 4 1 < 4 e 4 4 < < < 4 1 f t y t y i z a t i t 4 5 4 5 < * < 5 < < < < * < < y * * 1 5 < < 5 5 5 4 < < 1 < < 4 < < < < 4 e . ",
"< 1 < < < < < 4 e < < < 5 a y y y y y i d y y q < < 1 5 5 4 4 < < 1 < * < < 4 < < * < < * < * < 5 < < 1 < < < 5 < < * < 5 < 5 . ",
"5 2 < < < < < 1 4 < 4 4 1 y i y q y t t z i < < < < < < 5 < * 4 < < < < < < < < < < < < 1 < < < < e < < < @ e < 5 < < < < 1 4 . ",
"1 5 4 < < < 1 * < 5 < < 5 a a y y y t f i i 5 4 * < < 4 < 5 < < < e 5 5 < < < < 4 5 e 5 < < < < 4 * < 5 < < 4 5 e 5 < < < < < . ",
"2 4 4 4 @ 4 < < < < < < 9 f a g a y i e e 4 @ 4 * < * < * 1 * < < 5 < 5 < 5 5 < < @ < @ 5 < < < @ < 5 < < 5 < < 4 < 5 < < + <   ",
"< 4 * 1 < 5 < < < 4 < < 9 t g t i g t 1 < 1 < 1 < 9 1 < < 4 4 < < < e < < 5 < < < < @ 4 5 5 5 < 5 < < < 4 < < < 1 4 4 4 < 5 < . ",
"< 5 5 5 5 4 4 < < < e * 4 y y a f i 4 e * 4 < e 5 4 < < < < 5 < < < < < 5 5 4 < < < + 1 1 < < 5 < 5 < 4 4 1 4 < < 4 < 5 < < <   ",
"< 4 < 5 < 5 4 < < 4 1 5 4 y y y y 1 < < @ @ < 5 < 4 4 < * 4 < 4 * * X . * < < < < + * * < 5 1 < 1 * < 5 4 5 < * 5 < < < < < < . ",
"< < 4 < 5 < < < < 1 < 4 5 t g e 5 * < < @ * < @ 4 < 4 @ + @ @ * X < < < < < 4 e < + O < < 1 5 5 4 4 < < 1 4 5 e < * 4 1 5 < < . ",
" . . .e < 4 e 4 4 < < < & t < < 5 < * * @ * @ @ @ < < < e 4 4 4 < < < 4 5 < < < < 1 X * < < 5 < 4 < < 4 < 1 4 4 < 5 < < c  . .e ",
"=.=.=.%.5 5 < < + * < * 5 2 < * * * 5 * * + 4 @ < 4 < 5 < < 4 < 5 5 4 < < < 5 < < * O O 4 4 < 5 < 5 < < < < < 4 * < < v =.=.=.v ",
"@.%.&.%.i < * 5 < < 5 < 1 1 2 < < 5 5 < 4 @ < < 5 4 e < 4 5 4 * e < < < < e 5 < 5 * * O < 4 5 4 1 < 5 < < 5 4 4 < < 4 $.=.*.#.i ",
"< 1 *.=.j < 5 < 4 5 < 4 5 5 < < < 5 e < < < < < < < < < * < < < < < < < < < 4 < * < < + < < < < < < < < < * < < < 4 < $.=. .< . ",
"X + @.$.4 + + X + + + + O X + + + + O + O X O + + + O + + + O + O O X + + + + X + O + O + O + + O + + + + O + + O + +  .#.z O   "
};
