/* XPM */
static char *E_11711648390[] = {
/* columns rows colors chars-per-pixel */
"64 64 39 1 ",
"  c #2D2D2D",
". c #343434",
"X c #373837",
"o c #3C3C3C",
"O c #403F3E",
"+ c #40403F",
"@ c #3F4040",
"# c #434444",
"$ c #484747",
"% c #474847",
"& c #484847",
"* c #474848",
"= c #4B4B4B",
"- c #504F4F",
"; c #4F5050",
": c #535353",
"> c #585757",
", c #5B5B5B",
"< c #5F6060",
"1 c #656565",
"2 c #686767",
"3 c #676868",
"4 c #6B6B6B",
"5 c #747474",
"6 c #7C7C7C",
"7 c #838383",
"8 c #8C8C8C",
"9 c #949494",
"0 c #989797",
"q c #9B9B9B",
"w c #A3A3A3",
"e c #A8A7A6",
"r c #ACACAC",
"t c #B4B4B4",
"y c #BBBBBB",
"u c #C5C5C5",
"i c #CACACA",
"p c #D2D2D2",
"a c #DADADA",
/* pixels */
"#>ai%####@####%########;*##**#*#*##*#######**=;###==##**#=*=ua,#",
"=8ai*##**;#%=@***##@#=#*:###==***=#*;;##@##=*=*##***#=@#;#**ua8;",
"aaay*##=@##*@=#=#=#@@@#;###**=@#@*;####*O#@#;*#*#**=#*O##***taaa",
"ppu3,<>>%@o*,,,>$@@O>><<O##@,<<,#@@#,<,,@@OO:<<,*#=o:,><==@#1upp",
">:;>yyy8   oyyyq   .yyyw    tyyt.   ryyy@   wyyy=   8yyy>   @*:;",
"##%<yyy8   *yyy9   oyyyw    yyyt.   tyyto   wyyy*   qyyy=   @@=#",
"###3yyy8   *ytyq   oyyyw    yyyr.   ryyyO   ryyy=   qyyy>   #:=@",
"@*#<www7*X@3www8#o@1www8#o#<www9*@@>wwwq>@o:0www,#o;8www<#o-=@#=",
"#O#o   =ytyq   @ytyr   .ttty    wyty.   qyty@   8yry=   7yty4#:=",
"##&o   =yyyw   @yyyr   .tyyy    eyyyX   qyyy@   9yyy=   7yyy4###",
"*##@   *yyyq   otyyr   .ryyy    wyyy.   9yyy@   8yyy=   7yyy4#@=",
"=#**ooo=rrr9o@o=rrrq@Oo&wrrwooooqrrw*ooo8rrw:ooo7rrw<@oo7rrw<#=*",
"=*#>yyy9.  @yyy0  ..ryyw.  .tyyto   ryyy@   wyyy= . 8yyy,   @=@@",
"#**3yyy7   *yyy9   oyyyw    yyyr.   ryyro   wyyt#   qyyy-   O@$#",
"*#*3yyy8   *yyy0   oyyye    yyyr.   tyyyO   ryyy=   qyyy>   @#*@",
"*=*,rrr8X.X<rrr9X.X,rrrqX.X-rrrw@..*rrrr;..#wrrr>..#qrrr,X.#=###",
"###*   =yryq   oyryr   .tryy    wtty.   qyry@   8yty-   7yry4=##",
"####   =yyyw   #yyyr   .ryyy    wyyy.   qyyy@   9yyy=   7yyy2$@$",
"*O#o   $yyyw   otyyr   .ryyy    wyyyX   9yyy@   8yyy=   7yyy4##@",
"##$#. .-tyt0...#ytyw. .otttr . .wytro. .9yyt#. .8yyr:. .8tyr2$-#",
"###>rrr8ooo*rrr9.oo#wrr0#ooowrrw=ooX0rrr-oo.8trr:oo.8rrr>Xo.$$O#",
"##*3yyy7   #yyy9   oyyyw    yyyr.   tyytX   wyyy@   qyyy:   o#@#",
"#=#2yyy8   *yyy0   oyyyw    yyyr.   tyytO   wyyy=   qyyy>   @=##",
"+#=<yty9  .<tty0   :ytyw   #yyytX  ottyy#  oryty-  owtyt>  o:@##",
"##=#   =yryq   Oyetr   .rrry    wrry.   qtry@   8yry=   7yry4#&#",
"###o   =yyyw   #yyyr   .tyyy    eyyyX   qyyy@   8yyy;   7yyy5==@",
"####   %yyyq   oyyyt   .ryyt    wyyy.   9yyy#   8yyy=   7yyy4@*&",
"#*#+   =yyy0   #yyyw   .tyyt    wyyyX   qyyy@   0yyy;   8yyr4#&&",
"#+#-www8%#*=www9####www9##&#qwwq-#$@8www>##O7www<##O7www1##O*#-=",
"###1yyy7   *yyy9   oyyyw    yyyr.   tyyto   wyyy@   qyyy:   @*#*",
"#&#1yyy8   *yyy0   oyyyw    yyyr.   tyytO   wyyy=   qyyy>   o##=",
"=#%1yyy9   >yyy0   =yyyw.  oyyyy.  Xtyyy#  .ryyy=  .qyyy>  .##=#",
"=**@XXX;tqtqo..$rwrw.X.@eewtXXX.qwwy@XXX9wwy*X.X8rwt:.X.7rwt4$#@",
"$#=o   =yyyw   @yyyt   .tyyt    eyyy.   qyyy@   8yyy=   7yyy1#@$",
"$#@@   #yyyq   oyyyr   .ryyy    wyyy.   0yyy@   8yyy-   7yyy4#*@",
"#-;@   ;yyyq   #yyyr   Xtyyy    wyyy.   qyyy#   9yyy-   8yyt3###",
"$##,0008;;;;0008;;;#0000;;;#900q,;;*7000<:;$60001;:*60004:;;##@$",
"##*<yyy7   *yyy9   Xyyyq    yyye.   tyytX   wyyy#   qyyy:   @-$@",
"###4yyy8   *yyy0   oyyyw    yyyr.   tyyy@   eyyy$   qyyy>   o*@*",
"#@#1yyy9   -yyyq   @yyye.  Xyyyto  .ryyy$  .eyyy-  .qyyy>   ###@",
"###@@@@:e8eq###;w9ww@#@$0qqt@@@#8qqt=@@@8w9r:@#@7w8r,@@@7w9r2#;#",
"@##@   =yyyq   #yyyr   .tyyy    eyyy.   qyyy@   8yyy-   7yyy4=##",
"$#-@   $yyyw   .yyyr   .tyyy    wyyy.   0yyy#   8yyy-   6yyy2###",
"#=#@   =yyyq   @yyyr   .ryyy    eyyy.   qyyy@   8yyy-   7yyy2*##",
"@#=>8886,,,,8887,,,;8887<,,:7888<,,-6888<,,:68882,,>78884,,>=#@#",
"$#=2yyy7   *yyy9   oyyyq    yyye.   tyyto   eyyy#   qyyy;   @#@$",
"##*<yyy9   $yyy0   oyyyw    yyyr.   ryyy@   eyyy-   qyyy:   @*@$",
"##@1yyy9   $yyyq   oyyyr   .yyytX  .tyyy#  .eyyy-   qyyy,   @@*$",
"@$#=--=>079q----089r=;;=888t;=;*709r:-==7q7r<===607w<--=507w5-=@",
"###o   *yyyq   @yyyr   .tyyy    eyyy.   qyyy@   8yyy=   7yyy2@#=",
"##*@   *yyyw   oyyyr    tyyy    wyyyX   9yyy#   8yyy=   7yyy4#-*",
"#=#o   =yyyw   @yyyr   .tyyt    eyyy.   0yyy@   8yyy-   7yyy4**#",
"=##-7675212<7675111,7677112<5776133,6767133,6777331,5777423,-##-",
"$#*1yyy7   =yyy9   oyyyq    yyyr    ryytX   eyyy#   qyyy;   o#*#",
"==#1yyy8   *yyy9   oyyyw    yyyt.   tyyy@   eyyy-   qyyy:   @*#@",
"##$2yyy9   *yyyq   oyyyr   .yyyto   tyyy#   eyyy-   qyyy,   @@##",
"*#**>>><8689>>>>968w,>,:768e,>>;777w<,>>686w3>>>685q3>>>58602$*@",
"#--@   =yyyw   @yyyr   .tyyt    eyyy.   qyyy@   8yyy=   7yyy2@@$",
"##@*   *yyyq   otyyr    ryyy    wyyy.   0yyy@   8yyy=   7yyy3=$@",
"##*o   =yyyw   @yyyr   Xtyyy    eyyy.   wyyy@   9yyy;   7yyy3=@=",
"ee0>oX@=6674oo.#6654...X6765XX@X5675@oXo4564#.oo4765=.o@467520ee",
"aaat*#o*@@#@-*$$##:#@@*###*#*#*###=###=#=@#.**=*=****@***##*waaa",
"6qyr==#*$$***=###;##*#@#=*;##;##;#=##=*=@*#X@###=##*##=*#*#*uar6",
"#>ai*#=#*#@***###=;########################@@#*###*#######$*ua<#"
};
