/* XPM */
static char *PatE_11711648390[] = {
/* columns rows colors chars-per-pixel */
"64 64 211 2 ",
"   c #0C0C0C",
".  c #1C110F",
"X  c #131313",
"o  c #1A1515",
"O  c #161917",
"+  c #1C1917",
"@  c #171C18",
"#  c #1A1C1B",
"$  c #360F09",
"%  c #380F08",
"&  c #39140B",
"*  c #281716",
"=  c #251C19",
"-  c #321612",
";  c #3C1311",
":  c #371A1A",
">  c #1E201E",
",  c #20211F",
"<  c #3D201F",
"1  c #1F2121",
"2  c #232423",
"3  c #272826",
"4  c #2D2D2D",
"5  c #342728",
"6  c #3C2D31",
"7  c #333333",
"8  c #3A3335",
"9  c #373839",
"0  c #3C3C3C",
"q  c #4F1208",
"w  c #57160D",
"e  c #490E15",
"r  c #441A1F",
"t  c #591818",
"y  c #680E05",
"u  c #6D0E0B",
"i  c #740D09",
"p  c #651005",
"a  c #67171B",
"s  c #781219",
"d  c #4B221D",
"f  c #561526",
"g  c #620E24",
"h  c #6D0F28",
"j  c #740D25",
"k  c #66142A",
"l  c #71132A",
"z  c #771828",
"x  c #771A35",
"c  c #4B2524",
"v  c #422B2A",
"b  c #552627",
"n  c #4A3436",
"m  c #403E3D",
"M  c #55393A",
"N  c #6E2D30",
"B  c #41403F",
"V  c #2C3D43",
"C  c #3A3E49",
"Z  c #572F40",
"A  c #5D3646",
"S  c #712A45",
"D  c #673345",
"F  c #733A4A",
"G  c #1A4951",
"H  c #3F4040",
"J  c #39444E",
"K  c #244E5E",
"L  c #344A54",
"P  c #2A5967",
"I  c #27687A",
"U  c #356577",
"Y  c #444444",
"T  c #474847",
"R  c #484847",
"E  c #474848",
"W  c #4A4B4B",
"Q  c #4F5050",
"!  c #4C5055",
"~  c #525252",
"^  c #5C5C5C",
"/  c #63445D",
"(  c #7B505A",
")  c #62605F",
"_  c #4D586B",
"`  c #4E6369",
"'  c #57636C",
"]  c #636463",
"[  c #6C6D6D",
"{  c #706F6F",
"}  c #6F7070",
"|  c #737373",
" . c #797576",
".. c #7B7B7B",
"X. c #830C0F",
"o. c #850B14",
"O. c #8C0A16",
"+. c #880A18",
"@. c #91091A",
"#. c #99081C",
"$. c #84181B",
"%. c #A1091E",
"&. c #98132C",
"*. c #99183A",
"=. c #AB0623",
"-. c #A90925",
";. c #B4062A",
":. c #B9052A",
">. c #BB0D2D",
",. c #A41928",
"<. c #B6122F",
"1. c #A70831",
"2. c #B70832",
"3. c #A6153C",
"4. c #B5183C",
"5. c #9F2B2D",
"6. c #8E223F",
"7. c #A3292E",
"8. c #A82C33",
"9. c #C1042E",
"0. c #C40431",
"q. c #CD0335",
"w. c #C70B35",
"e. c #D40237",
"r. c #D50139",
"t. c #D50A3B",
"y. c #D90D3D",
"u. c #C5183B",
"i. c #D7133E",
"p. c #C12C3D",
"a. c #B61840",
"s. c #953459",
"d. c #AF2E4E",
"f. c #DB0F41",
"g. c #D71441",
"h. c #DC1442",
"j. c #DE1C45",
"k. c #E01F47",
"l. c #DA2747",
"z. c #DD2249",
"x. c #CD334A",
"c. c #CD3650",
"v. c #D93852",
"b. c #E1264A",
"n. c #E2294C",
"m. c #E5304F",
"M. c #E52F52",
"N. c #E73552",
"B. c #E93B55",
"V. c #85435C",
"C. c #BB425F",
"Z. c #85797B",
"A. c #AB6D74",
"S. c #CD4053",
"D. c #DA4658",
"F. c #EB4057",
"G. c #EB4359",
"H. c #E4485A",
"J. c #EE4A5B",
"K. c #F04A5C",
"L. c #DD4C6C",
"P. c #2E7288",
"I. c #2D7E98",
"U. c #677681",
"Y. c #687E82",
"T. c #7D7D83",
"R. c #35819B",
"E. c #348AA8",
"W. c #3694B5",
"Q. c #3893B2",
"!. c #568798",
"~. c #73888E",
"^. c #7E8F97",
"/. c #4E95AE",
"(. c #43A0BF",
"). c #3EA3C9",
"_. c #40A3C9",
"`. c #42ACD7",
"'. c #42ADD8",
"]. c #60ADC8",
"[. c #67BDDC",
"{. c #838383",
"}. c #8C8C8C",
"|. c #938B8C",
" X c #959595",
".X c #9C9C9C",
"XX c #88A3A9",
"oX c #8FACB6",
"OX c #A2A2A2",
"+X c #A3A5AE",
"@X c #ABABAB",
"#X c #BAAAA9",
"$X c #B4B4B4",
"%X c #B7B8B8",
"&X c #BBBBBB",
"*X c #D2AEB3",
"=X c #9DC9D9",
"-X c #B8C4C6",
";X c #AFD4DE",
":X c #99D4E7",
">X c #B9E2F0",
",X c #C3C9CA",
"<X c #DADADA",
"1X c #EECED4",
"2X c #CBDDE5",
"3X c #C4E2EC",
"4X c #D3E6EC",
"5X c #D3ECF5",
"6X c #E4EBEC",
"7X c #F0F3F2",
"8X c #FEFFFE",
/* pixels */
"Y ~.<X@XY Y Y Y Y Y Y Y Y Y Y Y Y Y Y Y Y Y Y ~ W Y Y Y E E E Y Y E Y W E E Y Y Y Y Y Y W W Q Y Y Y Q Q Y T T T Y Q Y Q %X<X .H ",
"| %X<X#XY Y Y W Y W Y Y W Y W E E E Y Y Y Y Y Y ~ Y Y Y W Y E W Y Y E Y W ~ E Y B H Y Q Y Q W H Y W T W Y T H H W Y W E %X<X@X| ",
"<X<X<X XY Y Y W E Y Y T H Q H W Y R Y Y Y Y Y ~ Y Y Y W E ~ Y Y Y Y W Y E E Y T B Y H Y W T Y W Y T H W T T H T T W T Y OX<X<X<X",
"&X%XOX~ [ } [ ^ H 0 0 W [ [ } ^ R 9 0 Y ] [ | ] 9 H H Y [ [ [ } 0 0 0 Y ] [ [ [ 0 0 0 0 ) | | [ T H Y 0 ^ [ [ } W Y 0 H Q @X&X-X",
"Y W T ..&X&X&X| 4 4 4 ^ &X&X&X}.4 4 4 Y &X&X&X.X4 4 4 0 &X&X&X@X4 4 4 4 $X&X&X$X7 4 4 4 OX&X&X&XT 4 4 4  X&X&X&X~ 4 4 4 B Y Y B ",
"Y Y Y ..&X&X&X .4 4 4 ] &X&X&X}.4 4 4 R &X&X&X X4 4 4 0 &X&X&X$X4 4 4 4 $X&X&X%X4 4 4 4 @X&X&X&XT 4 4 4  X&X&X&X~ 4 4 4 B R W T ",
"Y Y B ..&X&X&X .4 4 4 ] &X&X&X}.4 4 4 R &X&X&X.X4 4 4 Y &X&X&X$X4 4 4 4 $X&X&X&X7 4 4 4 @X%X&X&XT 4 4 4  X&X&X&X~ 4 4 4 Y E T T ",
"Y R Y ] {.{.{.| ] W ] {.{.{.{...] Y ] {.{.{.{. .] W ^ ..{.{.{.{.) ^ ~  .{.{.{.{.^ ^ Q | {.{.}.{.] ^ W } }.{.{.{.] ^ E ] ] Y Y Y ",
"Y H Y 9 4 4 4 ) &X&X&X{.4 4 4 Q &X&X&X.X4 4 4 m &X&X&X@X4 4 4 4 %X&X&X&X7 4 4 4 @X&X&X&XV 4 4 4  X&X&X&X~ 4 4 4 {.&X&X&X| Y W Q ",
"Y W E 9 4 4 4 ^ &X&X&X{.4 4 4 Q &X&X&XOX4 4 4 9 &X&X&X@X4 4 4 4 %X&X&X&X9 4 4 4 OX&X&X&XZ 4 4 4  X&X&X&X~ 4 4 4 {.&X&X&X| E Y E ",
"T Y Y 0 4 4 4 ^ &X%X&X{.4 4 4 W &X&X&X.X4 4 4 9 %X&X&X@X4 4 4 4 $X%X&X&X7 4 4 4 .X&X&X&XY 4 4 4  X&X&X&X~ 4 4 4 ..&X&X&X| Y Y W ",
"T Y W Y W Y W ] OXOX.X .E E W ~ OXOX.X}.E E W W OX.X.X XE E R E OXOXOX XQ E E E  XOXOX X~ E Y E ..OXOX X^ R E E ..OX.X.X] T E Y ",
"~ Y Y | &X&X&X .4 4 4 ^ &X&X&X}.4 4 4 Y &X&X%X.X4 4 4 9 &X&X&X$X4 4 4 4 @X&X&X%X7 4 4 4 OX&X&X&XE 4 4 4 }.&X&X&X~ 4 4 4 0 Y H Y ",
"T Y T ..&X&X&X| 4 4 4 ] &X&X&X}.4 4 4 E &X&X&X X4 4 4 m &X&X&X$X4 4 4 4 $X&X&X%X4 4 4 4 @X&X&X&XR 4 4 4 .X&X&X&XQ 4 4 4 0 Y E Y ",
"Y W Q ..&X&X&X| 4 4 4 ] &X&X&X}.4 4 4 E &X&X&X.X4 4 4 m &X@X@X+X4 4 4 4 OX@X$X&X7 4 4 4 @X&X&X&XE 4 4 4  X&X&X&X~ 4 4 4 H Y Y Y ",
"E T Y [ .X X X| ~ Y ~ {. X.X X{.Q Y W |  X X.X{.W Y E  .Z.k k k g g g g k k F {.Q W Y ]  X X X.X^ W Y ^ }..X X X) Q 9 ^ ~ Y Y Y ",
"Y Y Y 0 4 4 4 ] &X%X&X{.4 4 4 Q &X$X&X.X4 4 4 0 &X%X$X{.d 6.r.r.r.r.r.r.r.r.0.1.A |.@X-XY 4 4 4 }.@X@X&X~ 4 4 4 {.&X%X&X| W E Y ",
"Y E Y H 4 4 4 ) &X&X&X{.4 4 4 Q &X&X&XOX4 4 4 0 &X@XM < U S M.r.r.r.r.r.r.r.r.j.4.z F @Xm 4 n l h l ( &X~ 4 4 4 {.&X&X&X[ E Y R ",
"Y 0 Y 9 4 4 4 ~ &X&X&X{.4 4 4 R @X$X@X X4 4 4 7 @Xn J /.W.S M.r.r.r.r.r.r.r.r.n.6.! F F 6 v S.y.e.e.j @X~ 4 4 4 ..&X&X&X .Y R m ",
"Y Y Y Y 0 0 0 ] @X$X@X..0 0 7 5 ; ; ; ; ; : 3 7 n L ).`.)._ v.f.r.r.r.r.r.r.r.n.6.-X,XV.x f J.y.r.r.r.M ~ 0 0 0 ..@X$X@X[ W R Y ",
"H Y Y } &X&X&X..4 4 4 ^ &X.Xx 2.:.0.9.9.9.-.y q K _.`.`.).R.S.r.r.r.r.r.r.r.r.v.T.7X8X4XOXH 8.v.r.e.q.: }.&X&X&X^ 4 4 4 9 Y m Y ",
"Y Y Q ..&X&X&X| 4 4 4 ] .Xd %.r.r.r.r.f.n.n.l.c ).).`.`.'.R.d.h.r.r.r.r.r.r.r.v.~.8X8X8X8X` 5.B.r.r.r.h }.&X&X&XW 4 4 4 m Y Y Y ",
"E E T ..&X%X&X .4 4 4 ]  .N 7.B.B.F.F.F.G.z.i.c W.'.'.'.'.E.a.n.r.r.r.r.r.t.z.D.~.8X8X8X8X` 5.B.r.r.r.1.T.&X&X&X~ 4 4 4 9 E Y Y ",
"Y Y W [ @X@X@X| 0 7 0 {.] #X8.J.K.K.N.z.f.r.q.c W.'.'.).).I.4.b.n.n.n.n.n.n.J.H.~.8X8X8X5X^.N F.h.r.r.1. .@X@X+X^ 0 7 E ) 0 Y Y ",
"Y R Y 0 4 4 4 ^ &X$X&X{.0 *X5.B.b.t.r.r.r.r.q.c Q.`.`.`.'.R.4.w.>.>.>.>.>.2.w.w.~.8X8X5X:X].6 S.b.r.t.e.f 4 4 4 T.&X@X*X| H E E ",
"Y Y Y 9 4 4 4 ) &X&X&X{. .A.4.t.r.r.r.r.r.r.e.c Q.`.`.`.).R.l b 9 0 0 9 0 n a 2.V.^.3X:X[.W.8 c.b.e.r.r.k 4 4 4 {.&X&X&X| ! W H ",
"Y Y Y m 4 4 4 ^ &X&X&X~ r :.r.r.r.r.r.r.r.r.q.c W.'.'.).E.v a P (.;X6X6X6X4X| A ;.&./ I._.I G z G.k.j.i.u.5 4 4 ..&X&X%X} H T W ",
"Y E Y Y 7 7 4 ] %X%X%XH $ :.r.r.r.r.r.r.r.r.q.c Q.'.'.W.n c *.R.>X8X8X8X8X8X8X-Xd m @.6./ K G N H.G.G.G.D.5 7 7 {.%X%X$X} E T W ",
"Y m Y | &X&X&X..4 4 4 2 $ 0.r.r.r.r.e.e.e.r.e.d W.'.).9 b oXs.oX8X8X8X8X8X8X8X2Xv E.P.n z &.C V y i %.y B *X&X&X~ 4 4 4 H H W W ",
"Y Y Y  .&X&X&X[ 4 4 3 O $ 0.r.r.r.r.q.e.q.@.o.w P `.P.8 XX[.s.XX8X8X8X8X8X8X5X=X6 E.).W.U 9 k d p @.i :  X&X&X&XQ 4 4 4 H T T W ",
"Y E Y ..&X&X&X| 4 4 3 X $ 0.:.=.=.#.y y X.O.O.X.C U c Y.[.>XC.XX8X8X8X8X8X3X/.!.v P.E.R.A D N 2.i p p =  X&X&X&X~ 4 4 4 0 T H W ",
"Q Y E ..&X%X&X..4 4 3 X $ $.%.:.:.:.:.:.q.t.t.q.M t y m U U.d._ U.U.U.Y.Y.' *.3.s *.*.a.t.r.y.e.9.i p 5 OX&X&X&X~ 4 4 9 W H T T ",
"~ Y R m 4 4 4 ^ &XOX .X % *Xt.j.k.z.j.b.B.J.J.h.e.O.%.y :.i.z.z.z.z.z.z.z.z.t.q.O.h.b.B.J.J.K.n.i.9.i . 4 7 4 4 T.&X@X%X| E Y Y ",
"E Y R 9 4 4 4 ^ &X&XT.X : *Xt.G.J.J.J.J.J.J.J.M.9.i =.o.m.F.J.J.J.J.J.J.J.G.N.,.u.G.J.J.J.J.K.J.F.y.@.. 3 4 4 4 T.&X&X&X[ Y B Y ",
"W Y R 9 4 4 4 ^ &X&X .4 Z.1Xh.G.J.J.K.K.J.J.N.j.O.%.@.;.F.J.K.B.m.J.J.K.K.J.p.%.i.n.n.n.N.K.K.G.n.t.@.. 3 4 4 4 Z.&X&X&X| Y E B ",
"Y Q ~ 9 4 4 4 ] &X&X .3  .L.r.N.H.g.u.4.u.B.B.<.=.q.:.t.y.y.y.y.r.g.h.g.g.y.;.>.c.c.c.x.w.N.F.i.@.u e o 3 4 4 7 {.&X&X&X| Y Y Y ",
"Y Y R [ +XOXOX..Y E 7 3 : 0.b.x.h * o + + j 4.,.9.r.r.r.r.r.r.r.r.r.r.e.r.q.s N + + @ = ; +.;.u v ) o X | +XOXOX^ Y Y 0 Y Y Y Y ",
"Y W Y ..&X&X&X{ 3 4 2 # 7 f 2.r # 2 @ @ @ @ : +.e.r.r.r.r.e.r.r.r.r.r.e.r.@.* , > @ @ @ > - y : ] { , ,  X&X&X&XW 4 4 4 0 Q Y Y ",
"Z Y Y ..&X&X&X| 4 4 3 # ] ~ + # 1 > 7 # O @ + w 0.e.t.b.b.b.n.b.b.n.b.b.u.t = 2 @ 9 @ @ @ + q * 7 3 O 3  X&X&X&X~ 4 4 4 9 W Y Y ",
"H Y R ..&X&X&X..4 4 4 9 3 7 2 2 2 4 H @ # o # - p.N.N.B.B.B.B.N.B.B.N.N.x.- 1 2 9 9 @ @ @ @ & q * X # 7 .X&X&X&X~ 4 4 7 W Y Y m ",
"J Y H T H 0 H ) @X}.@X}.= X O # 2 1 T > @ @ @ - o.@.@.@.@.@.O.@.@.@.@.@.o.- 2 1 3 E O O @ # * ; * ..}.$X] B 0 m ..@X}.@X| Y Q R ",
"H Y H 0 4 4 4 ) &X&X&X{.4 1 # O > > 2 > # @ @ o = = = = . . . . = = = = o X + 2 # 3 1 # # # > 3 }.&X&X&X~ 4 4 4 {.&X&X&X| W Y Y ",
"Y H Q 0 4 4 4 ^ &X&X&X{.4 3 1 1 > > 2 2 > o X   4 7 7 4         4 4 4 4     X + 2 , 2 @ O # 2 3  X&X&X&XW 4 4 4 ..&X&X&X[ Y Y Y ",
"W W Y 0 4 4 4 ) &X&X&X{.4 4 3 0 [ H 4 3 X X X @ Q Q W R X X X X R E E Y o     X 3 3 4 C 3 2 4 4  X&X&X&X~ 4 4 4 {.&X&X&X} T Y Y ",
"B B Q ) .X.X.X| W W R ^ .X.X.X{.B 7 4 7 ^ ) ] ^ 4 7 4 4 [ ] ] ] 4 4 4 3 ^ ^ ^ ^ 3 3 4 7 {  X.X.X) E W E ...X.X.X] W W E Y Y Y Y ",
"B T J ..&X&X&X} 4 4 4 ] &X&X&X{.4 4 3 Y @X@X@X{.3 4 4 9 @XOX@X X4 3 3 3 OXOXOXOX4 4 4 4 @X&X&X&XY 4 4 4  X&X&X&XW 4 4 4 H Y Y Y ",
"T T T ..&X&X&X| 4 4 4 ] &X&X&X X4 4 4 R &X&X%X X4 4 4 m %X&X&X$X4 4 4 4 $X&X&X%X4 4 4 4 @X&X&X&XE 4 4 4  X&X&X&X~ 4 4 4 0 Y Y Y ",
"B T H ..&X&X&X..4 4 4 [ &X&X&X}.4 4 4 T &X-X%XOX4 4 4 B &X&X&X%X4 4 4 7 $X%X&X&X7 4 4 7 @X&X&X&XW 4 4 7  X&X&X&X^ 4 4 7 Y Y Y Y ",
"Y W H ~ Q Q Q ]  X{..X}.~ Q Q ^  XZ. X.XQ Q Q ~  X{.}.@XQ Q Q W  X}.}.@X^ Q Q Q }. X{.OX) Q Q Q {. X...X[ Q Q Q  . X...X .W W Y ",
"Y T B 9 4 4 4 ) &X&X&X{.4 4 4 Q &X&X&XOX4 4 4 0 &X&X%X@X4 4 4 4 %X&X&X&X7 4 4 4 @X&X&X&XB 4 4 4  X&X&X&X~ 4 4 4 {.&X&X&X| Y Y E ",
"B H Q 9 4 4 3 ^ &X&X&X{.4 4 4 Q &X&X&XOX4 4 4 9 %X&X&X@X4 4 4 4 $X&X&X&X8 4 4 4 .X&X&X&XB 4 4 4  X&X&X&XQ 4 4 4 ..&X&X&X .E W W ",
"Y Q B 9 4 4 4 ) &X&X&X{.4 4 4 Q &X&X&X.X4 4 4 0 &X&X%X@X4 4 4 4 %X&X&X&X9 4 4 4 @X&X&X&XB 4 4 4  X&X&X&X~ 4 4 4 {.&X&X&X| E E E ",
"Q H H ^ ....{.| [ [ ] ) {.{.{.} ] [ ] ) Z.~.....[ ] ] ^ ..{.{.{.] [ ] ^ | {...{.] [ ] ^  .~.Z.{.[ ] [ ) [ {.{.{.[ [ ] ] Q Y Y Q ",
"T Y W ..&X&X&X| 3 4 4 ] &X&X%X}.4 4 4 W &X&X&X X4 4 4 m &X&X%X@X4 4 4 4 $X&X&X$X4 4 4 4 @X&X&X&XY 4 4 4  X&X&X&XE 4 4 4 9 Y Y Y ",
"^ B Y ..&X&X&X| 4 4 4 ] &X&X&X}.4 4 4 R &X&X&X X4 4 4 H &X&X&X$X4 4 4 4 $X&X&X%X7 4 4 4 @X&X&X&XR 4 4 4  X&X&X&X~ 4 4 4 0 E Y H ",
"H H Q ..&X&X&X..4 4 4 ] &X&X&X}.4 4 4 W &X&X&XOX4 4 4 B &X&X&X$X4 4 4 4 $X&X&X&X7 4 4 4 @X&X&X&XE 4 4 4  X&X&X&X~ 4 4 4 9 Y Y Y ",
"W H Y ~ ) ) ) [ {.} {. X] ] ] ] {.| {. X] ] ] ^ {.| ...X] ] ] ^ {.| ...X[ ) ) )  ... . X{ ) ] )  .~.|  X| ] ) ] | {.}  X[ Y T B ",
"T Q ~ 9 4 4 4 ^ &X&X&X{.4 4 4 Q &X&X&XOX4 4 4 0 &X&X&X@X4 4 4 4 %X&X&X&X9 4 4 4 @X&X%X-XB 4 4 4  X&X&X&XQ 4 4 4 {.&X&X&X} Y Y Y ",
"Y H W H 4 4 4 ^ &X&X&X{.4 4 4 W &X&X&X.X4 4 4 7 &X&X&X@X4 4 4 4 $X&X&X&X9 4 4 4 OX&X&X&XH 4 4 4  X&X&X&X~ 4 4 4 ..&X&X&X| E Y Y ",
"Y W Y 9 4 4 4 ) &X&X&X{.4 4 4 ~ &X&X&XOX4 4 4 0 &X&X&X@X4 4 4 4 %X&X&X&X9 4 4 4 OX&X&X&XH 4 4 4  X&X&X&X~ 4 4 4 {.&X&X&X| W Y E ",
"OXOX{.T 9 9 Y Q ......) 0 0 9 T ......] 7 7 9 H  .....[ 9 0 H 9 ......| B 0 0 H }  ...[ Y 9 0 0 [ .... .W 9 0 0 [ ....| ^  XOXOX",
"<X<X<X}.Q Y H H H Y Y H W W Y Y Y E W Y Y 0 T H Y Y Y Y T Y T Y T W W Y B Y T B T B Y 7 T T W T R R R Y W H Y Y E Y Y E .X<X<X<X",
"{.@X-X.XY W Y W Y W Y Y Y W Y Y T W Y Y T Y H E W W Q Y Y W Y Y Q Y T Y Y E W Q Y T Y 9 H Y T Y W Y Y W Y Y Q E Y Y Y W %X<X&X{.",
"B {.<X@XY Y W H Q T Y W T T Y Y E E ~ Y H Y H Y Y Y Y Y H Y Y Y Y Y Y Y T Y Y Y H Y Y Y 0 Y Y Y T T Y Y Y Y H Y Y Y Y Y &X<X .T "
};
