/* XPM */
static char *Pdown_11711648390[] = {
/* columns rows colors chars-per-pixel */
"64 64 203 2 ",
"   c #161A17",
".  c #1C1E1D",
"X  c #271715",
"o  c #381515",
"O  c #321D1D",
"+  c #25211F",
"@  c #3D1D27",
"#  c #1F2024",
"$  c #232323",
"%  c #2A2424",
"&  c #272927",
"*  c #2A2A2A",
"=  c #322425",
"-  c #3A2C2B",
";  c #352F30",
":  c #2F3030",
">  c #343534",
",  c #3C3333",
"<  c #383837",
"1  c #373739",
"2  c #3C3C3C",
"3  c #4C1207",
"4  c #4B120A",
"5  c #541309",
"6  c #51100F",
"7  c #411514",
"8  c #471915",
"9  c #630F03",
"0  c #6A0C03",
"q  c #750D0A",
"w  c #7C0C0D",
"e  c #651205",
"r  c #621409",
"t  c #6B180F",
"y  c #691316",
"u  c #751818",
"i  c #6E221B",
"p  c #431B21",
"a  c #581624",
"s  c #6F1725",
"d  c #452526",
"f  c #432B2C",
"g  c #562524",
"h  c #59252C",
"j  c #483534",
"k  c #413E3E",
"l  c #54383A",
"z  c #6B2C29",
"x  c #652C37",
"c  c #7D2637",
"v  c #723839",
"b  c #3F403F",
"n  c #41403F",
"m  c #6F423C",
"M  c #553545",
"N  c #3F4040",
"B  c #3D474B",
"V  c #294F59",
"C  c #3A4955",
"Z  c #1E5561",
"A  c #2A5866",
"S  c #226A7D",
"D  c #444444",
"F  c #494747",
"G  c #474847",
"H  c #484847",
"J  c #41414A",
"K  c #474848",
"L  c #4A4B4B",
"P  c #534545",
"I  c #514D4C",
"U  c #51504F",
"Y  c #4F5050",
"T  c #555453",
"R  c #595655",
"E  c #595857",
"W  c #515D5E",
"Q  c #5C5B5A",
"!  c #744B49",
"~  c #665A59",
"^  c #605F5E",
"/  c #61605F",
"(  c #4E6E75",
")  c #636362",
"_  c #6C6C6C",
"`  c #7E6160",
"'  c #726F6F",
"]  c #70716F",
"[  c #757575",
"{  c #860A0F",
"}  c #850C13",
"|  c #8B0B14",
" . c #810E1B",
".. c #8A0C1B",
"X. c #950B1B",
"o. c #970A1B",
"O. c #9B091D",
"+. c #8C1F1F",
"@. c #A2081E",
"#. c #990A20",
"$. c #A50722",
"%. c #AC0524",
"&. c #B40426",
"*. c #B60429",
"=. c #BE032D",
"-. c #B01A34",
";. c #8F2121",
":. c #9B2529",
">. c #8B2A37",
",. c #952633",
"<. c #87313C",
"1. c #8E313B",
"2. c #AA2631",
"3. c #A32B34",
"4. c #A82933",
"5. c #C1042D",
"6. c #CC0233",
"7. c #C80C33",
"8. c #D40137",
"9. c #D50138",
"0. c #D40A39",
"q. c #D90A3B",
"w. c #CB173C",
"e. c #C5223E",
"r. c #933141",
"t. c #9C3041",
"y. c #AE2D44",
"u. c #AF3346",
"i. c #A33F46",
"p. c #B43644",
"a. c #DB1341",
"s. c #DC1A43",
"d. c #D81D45",
"f. c #E01F47",
"g. c #DE2446",
"h. c #DF2349",
"j. c #C9334E",
"k. c #D8334A",
"l. c #C63954",
"z. c #C93F50",
"x. c #E12449",
"c. c #E32B4C",
"v. c #E53A51",
"b. c #E93952",
"n. c #864B4B",
"m. c #886465",
"M. c #996369",
"N. c #916E72",
"B. c #937575",
"V. c #D1404C",
"C. c #CD4B5C",
"Z. c #E34857",
"A. c #EC4559",
"S. c #ED4A5A",
"D. c #307992",
"F. c #327B94",
"G. c #2B829D",
"H. c #3799BB",
"J. c #3999BB",
"K. c #468499",
"L. c #5A8D9D",
"P. c #499FBD",
"I. c #3FA3C8",
"U. c #42ADD7",
"Y. c #45ADD8",
"T. c #4AB0D7",
"R. c #53B5DB",
"E. c #58B6D9",
"W. c #7CB4C7",
"Q. c #65BCDC",
"!. c #878787",
"~. c #8B8B8B",
"^. c #939393",
"/. c #989898",
"(. c #A18587",
"). c #A2A2A2",
"_. c #ADA8A9",
"`. c #B7A6AC",
"'. c #BAB4BB",
"]. c #BCBCBC",
"[. c #C1BBBE",
"{. c #89C0D2",
"}. c #A9C4CB",
"|. c #BECFD2",
" X c #8FD0E7",
".X c #96D4E7",
"XX c #95D3E9",
"oX c #C4C4C4",
"OX c #C4C8CB",
"+X c #CBCACA",
"@X c #CBCDD5",
"#X c #D0CFD5",
"$X c #CCD5D9",
"%X c #D3D5DB",
"&X c #D8D8DB",
"*X c #DADADA",
"=X c #DADCE3",
"-X c #DEE1E6",
";X c #CDEAF2",
":X c #D3EDF5",
">X c #E6E9EC",
",X c #F7FBFB",
"<X c #FEFFFE",
/* pixels */
"2 D _.+X) N D N D N D M N b N N D N D N N D D D D D N D D N D N D N D N D D N N N D b D L D D D N D N K D k D D D D N ~.+X~.N > ",
"D D oX*X_ D D D D K D D B b B L D D N D D D D L Y D D D Y L D G L D K L K Y D D N D D L D L L D D L K K L D D D D L L /.*X).D > ",
").OX*X*X_ D D D K L D K L G n U D L D D N D D Y K D D K D L D L D K L D K D D K D D D D L L D D D L L D D D D L D D K ~.*X*X].[ ",
"OX*X*X_.D K D L K L N K D G G D L D D G 2 D L L D K D K D L D L N D D K K D D D 2 D D D K L L K D Y D D D D D D L K K ^ OX*X*X~.",
") _ ) L G H D L L G L G D U G L K D D D k D D D L K K D T D D D D L K L N D K K D N D N D k D n L D D L D D D D K D Y D T ) ) K ",
"2 D L D D D K D D K N D G b D G G K D D N n D D 2 D D L D K D D D D D K N > D K D D D D D D D D D D L D k F D D D L D K D D D > ",
"n D D D D D D D K K L L D G D G L D L D D D D N D D D D D L L L L D D D L 2 < D D D D L D K D L N N D > K K D D L D L K T L D > ",
"b G G G L L K G D D D L N b G L L L L H D b L D L Y L D K D D L D D D G D L < > L 2 2 N b L L D L G N 2 D K D D D D K D D D L > ",
"N D D D I D D L D G D D K D D N D D D D D L D D L D N Y D K D D L D D H Y D < > > G D n D D D L L L N 2 D D K D K D k D D D T > ",
"2 D D D D L L D L D D D K D L D D N D D T L D 2 N N 2 2 2 < 2 2 < < < 2 1 > > * b G D L D D D D L K K D G D K D D D D D K D K > ",
"D D D D D D D H Y D D N D L D D D D G D D K - t.u.u.u.u.u.u.u.u.u.u.u.u.u.u.u.>.I G L D D D D D D L D D K D D K D D D D D D L 1 ",
"D K D D D D D D K D D K D K G D D D k G D D <.q.9.0.9.9.9.9.9.9.q.9.9.9.0.9.9.s.x E E L D D D D K D 2 D N D L G L K D D N K D > ",
"D T D D D D F D D L D D G L K L D D D H H H c 7.=.=.=.=.=.=.5.=.=.=.5.=.5.=.=.w.x / E T H D D D N 2 D D D L D L L K D D K D D > ",
"N D D K D D D D D D D D D L K D L L H G U H X 5 ;.4.4.4.4.4.4.4.4.4.4.4.2.:.e u d R ) R T D H H D D D K D D D D L D L L D D D > ",
"D D D L D L L D D L L D D D L D D L L E Q E 1 a g.q.q.q.q.q.q.a.q.q.q.q.q.a.:.d D E E Q Q L T D G D b D L D K D D L K L D D D > ",
"N L K L L L D D D D K D D L D L L G U I I j y +.d.9.9.9.9.9.9.9.9.9.9.9.9.a.:.t r.F R R E E R T K G 2 Y L L D D L D D D D D N > ",
"N D D L L D D L D K L L L D L D D D T T l ..0 :.a.9.9.9.9.9.9.9.9.9.9.9.8.s.:.q =.y.P T R E Q R E D N N D D D L L D D D L L D > ",
"b D L D L G L D K D D D D Y D D D L R R s h 9 c.9.9.9.9.9.9.9.9.9.9.8.9.8.s.V.} c d.x R R R E R T K K K D L D L D D L D L D D > ",
"N N D D G L K D D N K D L D L G K D T f #.1 9 k.a.6.6.a.9.9.9.6.h.x.x.x.h.c.S.o.M ..j.j ) E / R T T D L D D T L D D D L H D k > ",
"N D K D L K K L D D L D L G D D D L L @ #., r p.l.l.l.l.l.l.l.l.C.C.C.C.C.C.C.| x 3.p.2 E / ^ Q E T Y L D L G L D L L L F F D > ",
"N D N D L D L D K K D D L D N D N J 1 @ #.4 8 D.G.F.F.F.F.F.F.G.D.F.F.K.L.K.( h 3.;.u.2 Q Q T T E Q Q 2 2 D G L D D L D L 2 D > ",
"N K K L L D D K L L 2 D D D D L K L 1 @ ..o ; U.U.U.U.U.I.Y.Y.U.U.U.R. XQ.:X-XC 4.w y.k Q R Q Q R Q T < 2 H D D L D D L D D D > ",
"2 L D K K N N N D D D K D D D L D D 1 2 8 # S I.U.U.U.U.Y.Y.U.U.U.T.XXQ.:X<X,XC s $.z L Q R R R E E R D 2 H D D L K L D D L D > ",
"D D L D D L N D D D K L D L L D L D f a a # F.U.U.U.U.U.Y.Y.U.U.E. XQ.;X<X<X<X].d o a x L T R T Q E T L n L D D D D K T D D D > ",
"2 B L G D D D K L D G D D L D L L ,  .| | % G.U.U.U.U.U.Y.U.Y.T.XXQ.:X<X<X<X<XOXd 7 o.q.t.L Q ^ E T T I T < D D D L L D D K K > ",
"M N D b D D G K G L K K D b D D 2 % 9 9 5 V U.U.U.U.U.U.Y.I.R.XXE.:X<X<X<X<X<X|.>.4 6 { u M E Q E E I T Q F D D L D I D T L D > ",
"N N D G L K G D K D D G D L D G b D = @   Z U.U.U.U.U.U.Y.R. XE.:X<X<X<X<X<X<X|.C  .o O - R / R Q E L ^ R R D D D D D D D D L > ",
"N G G D K L D L D D D K D D D D L D L N X V J.Y.U.U.U.U.R.XXQ.;X<X<X<X<X<X<X,X{.A } O n T T R Q ^ Q T T R T D D K D D D K D L > ",
"b D N G L G G D K K D D K D b 2 D D G 2 o u M V F.J.H.H.W.P.}.$X$X$X$X$X$X].W B u O.p L D F L L U E ^ D L Q L n D D D D K D L > ",
"b G G D D G L D L D G D L < N N D N D , 5 =.*.O.s f f f f f f f f f f f f h O.%.8.5.a < n D D D D L H D < D L Y D D D D D D Y > ",
"G D D N D G D L K D D N < K N D D D K % e =.9.h.g.6.6.6.6.6.6.6.6.6.6.6.6.*.%.9.8.s.z., H D D D D L G D D 1 L D L D D D D D D > ",
"N L D L b D b G L D D D D K D D N D < 8 e =.9.A.g.$.9.9.9.9.9.9.9.9.9.9.9.=.O.9.9.s.Z.x D D n D L D D D D D K K Y L N D K K D > ",
"N R D D D D D D D L D 2 D G D L G D 2 3 e =.q.A.S.X.9.9.9.9.9.9.9.9.9.9.9.=.0 6.8.f.S.1.D D D D n D G D D L 2 K D D L G D N D > ",
"D D n L D D D D D D D D D L < D G Y 1 4 | 8.c.S.S.o.9.9.9.8.9.9.9.9.9.0.s.=.9 o.8.8.b.1.n D L L G D G G D D 2 D L D K D D G D > ",
"D D H L D L L D D D L < D D < D D G < 4 X.8.q.S.S.X.9.9.9.9.9.9.9.9.9.0.x.=.9 { 8.8.b.1.H H L D G D D D L D D b D L L Y D D N > ",
"2 K D L H L L D D D D < D L 2 D K L < 3 | ,.>.e.S.X.9.9.9.8.8.9.9.9.9.s.x.=.9 t >.,.v.1.n H D L D D D L L L L b D G D G N D D > ",
"N D D D L D D D D D L D D D L N 2 b < 4 v +X=XM.-.O.8.8.9.8.9.9.8.9.8.b.x.&.r (.=X'.i.>.b K Y N G D D D D H D 2 L D D D G D D > ",
"D D L F K K L D L D D D D L D D D < < g oX@X%X&Xn.@.=.8.9.9.9.9.9.8.8.b.x.{ m.=X=X%X`.8 b L L D L G D G L L D L D b L H K D D > ",
"D N D D D L L G D D L D L D K K G D 1 g $X@X%X-Xn.%.&.8.9.9.9.9.9.9.8.b.x.q B.>X=X@X'.7 2 D Y D H D L E E F F G D L D D L D D > ",
"2 D K D G K D L D D H D K D K D D L B g #X@X$X-Xn.@.*.8.8.9.9.8.8.9.c.S.g.q N.*X=X@X[.o L G D K D T T E E U L L D D D D D L D > ",
"N D D D Y D L D L D D K L L D D D L b 8 B.=X>X_.2.%.%.9.9.9.9.q.q.x.S.b.0.q z [.>X#X` = I T L T T T Q R E Q L L D D K L L D K > ",
"N D D L K D K D D L D D D D D L D G D * - m.N.t 5.%.*.9.8.8.9.s.c.c.c.0.{ 9 e z N.! - < R E R R E T R E R T L D D D K D K D N > ",
"N T D D L D D D D L D H L K D L G L N : , j e %.8.@.w =.5.5.5.5.5.5.5.| 9 q @.@.w k > n Q Q Q T T ^ T Q T K L D D L L L D D D > ",
"< D D L D K N L D L D L D D K D L G U U < ' l g X.i m r e e e e e e r t ! ..O.g P _ > E Q ^ E E E Q E L T D D Y D G K D D D D > ",
"N M K K D L K K D D L L D L G G G D U U & / ] ' P % / j ~ ~ R R R ~ / , Q + R ' ] R & U Q E Q E T T G D H L D D L D K L D D D > ",
"b D Y K D D D D L D D D D D D L L R R R < & D U 2 $ / $ ; %       & : : R + H U b $ > b L L L Y R Y G D D D D D L K L D D K D > ",
"N B D N D D K K D L L L L n G D L E Q T T D * * $ $ > $ > % # . + * > & > $ & & & > b D G n D b U D D L H L D D D D K L D D N > ",
"b N N L L L K D F D D L D H D D Y Q / E ~ U L > > & $   $ $ $ $ + $ $   + & & : b b b D D Y L Y D D L D L D D D K L L K Y L D > ",
"b G G N D K D Y D D D K D D K L ^ T E T Q E E L H n * > & & & & $ $ * * 1 > D D L 2 2 L D L D D H G D D D K K D L D L D D D L > ",
"b N N G T D D D K K D D L D K T T T Q R T E E R E H < < > : > : > > > > 2 2 K D D 2 D D D H L D H L D D D D D D D D N D K D D > ",
"b G G G D D L G K D D D L L Q R R T R E ) Q T E U D L D D 2 2 2 D M D D D D D D R D b D K D D L L G L G D D K D K D N D D D T > ",
"N G N G K D D L L D K N K Q R R R E E E E E T U G D D L K K K D D B D n D b L D D D L D n D n D L L D D K D D L D D D D K D L > ",
"G G D D D D D G K D D L D E Q E T R U R Q Q G D D D D D Y D 2 D b G G G D D D D D L D D L D D D D L L D D D L K L D D D D D K > ",
"N L D G D D D D D K D D K Q Q E E R R Q Q Q L D D D D H D H D D D Y G L K D D K K L K L D D D D G n D D D D D K L L D D D D D > ",
"D K D K D D D D D D D D T Q E Q Q E E T Y L N G D D D D n F D D L G G G D L D D N D K D D D D D n D G D D K D D L D K D D 2 D > ",
"D K N D D L D D D K D G L T ^ R T / T H D L D L n L D D D D L D N G L D D L D D D D 2 L L L L L L D D D L D D D K L L L D L N > ",
"N K L Y K D K D N D L D F Q R Q / Q L L D K H L L D D D L D K D G G D G K L L N D n b D D D G L D K D K D K L D D D D K D D D > ",
"N K D L K K K N D K L Y L I R R R D D D D 2 D L D L L D b D G K b 2 > > 2 D N G D D 2 b D L L D L N D L K K K D L D D D D D D > ",
"N N L D L K L K D D D D K T E T L n D D < 2 D 2 D D L D D 2 D N < N G D D D K L D N 2 N D H L D L K K D D L G Y K D L D L L D 1 ",
"!.^.~.Q K K Y K D D K D D Y K D K D 2 2 2 k D 2 D D D D K D D D G N G G G L D G D D 1 2 D D Y D G D D K G D L K D K D D [ ~.~.) ",
"OX&X*XoXY L N N N 2 N N L D K N N N L D n 2 D D D K D L K D K D G G K D D D K D L b 2 > K D K L D K D G G N D K D D D _ &X*X*X~.",
"!.).].oX^ D K L D K L K K K K D K L L D L D b N L L Y D D L D N L K K D D L K G L N D > D K K L L D L D D L K G D D G ^.*X#X/./ ",
"b D ].*X_ D L K K K N L L L D D D L L D D D D D D D D D N K D D D D D D D D D D N D D 2 N K D N G D D D D D D D D D D ^.*X/.D > ",
"> < ' ~.L > > > > > > > > > > > > > > > > > > > 1 > > > > > > > > > > > 1 > > > > > > > > > > > > > > > > > > > > > > ^ ~.) > * "
};
