/* XPM */
static char *Pleft_11711648391[] = {
/* columns rows colors chars-per-pixel */
"64 64 205 2 ",
"   c gray6",
".  c #160F0F",
"X  c #18110E",
"o  c #141413",
"O  c #191311",
"+  c #161916",
"@  c #1B1917",
"#  c #171C18",
"$  c #1B1C1B",
"%  c #3A1009",
"&  c #261B1A",
"*  c #3B1411",
"=  c #371917",
"-  c #1E201F",
";  c #20201F",
":  c #1F2120",
">  c #232423",
",  c #292727",
"<  c #2B2B2B",
"1  c #3A2A2A",
"2  c #382F31",
"3  c #2F3030",
"4  c #343535",
"5  c #3C3435",
"6  c #383837",
"7  c #383739",
"8  c #373838",
"9  c #3B3C3B",
"0  c #4B0E0B",
"q  c #590E0C",
"w  c #4A1207",
"e  c #4D110B",
"r  c #541206",
"t  c #440E1A",
"y  c #4B1A15",
"u  c #6A0E07",
"i  c #770C0B",
"p  c #651107",
"a  c #710D13",
"s  c #72151B",
"d  c #731B1D",
"f  c #570F20",
"g  c #4E1926",
"h  c #591325",
"j  c #501929",
"k  c #680F24",
"l  c #780B25",
"z  c #671625",
"x  c #781328",
"c  c #402728",
"v  c #542526",
"b  c #482F34",
"n  c #413E3E",
"m  c #523234",
"M  c #712623",
"N  c #6F2531",
"B  c #653239",
"V  c #3F403F",
"C  c #41403F",
"Z  c #293D43",
"A  c #383D41",
"S  c #4E3D4C",
"D  c #6A2D44",
"F  c #65324D",
"G  c #7D304D",
"H  c #653C56",
"J  c #164D5B",
"K  c #3F4040",
"L  c #33474D",
"P  c #284552",
"I  c #2E545E",
"U  c #235B6A",
"Y  c #336778",
"T  c #444444",
"R  c #484747",
"E  c #474847",
"W  c #484847",
"Q  c #474848",
"!  c #4A4B4B",
"~  c #504D4C",
"^  c #51504F",
"/  c #4B4255",
"(  c #5B4359",
")  c #4F5050",
"_  c #555453",
"`  c #585756",
"'  c #595857",
"]  c #5C5B5A",
"[  c #66485D",
"{  c #605F5E",
"}  c #61605F",
"|  c #4D5A74",
" . c #496D77",
".. c #646363",
"X. c #686867",
"o. c #6C6C6C",
"O. c #697A7F",
"+. c #757575",
"@. c #7B7B7B",
"#. c #860A15",
"$. c #8C0A14",
"%. c #840F1C",
"&. c #9D061C",
"*. c #900B18",
"=. c #98081A",
"-. c #90131F",
";. c #A0051E",
":. c #950827",
">. c #971928",
",. c #881D36",
"<. c #931B3A",
"1. c #A60924",
"2. c #B20627",
"3. c #B4052A",
"4. c #BB042B",
"5. c #B20B29",
"6. c #AA1529",
"7. c #B80734",
"8. c #AB1838",
"9. c #B2153E",
"0. c #8A2732",
"q. c #9C2E36",
"w. c #86313C",
"e. c #B32D38",
"r. c #C2032E",
"t. c #C50735",
"y. c #CB0333",
"u. c #D40237",
"i. c #D50138",
"p. c #D60C3B",
"a. c #CE103A",
"s. c #991E41",
"d. c #812442",
"f. c #9E395C",
"g. c #B62949",
"h. c #AA3E60",
"j. c #DC1542",
"k. c #D01C42",
"l. c #DB1D43",
"z. c #E01E46",
"x. c #C52542",
"c. c #D92546",
"v. c #D23D51",
"b. c #D93853",
"n. c #E12549",
"m. c #E42D4E",
"M. c #E53050",
"N. c #E63452",
"B. c #E63852",
"V. c #EA3D56",
"C. c #D93F61",
"Z. c #994D4F",
"A. c #936562",
"S. c #D6404D",
"D. c #C34559",
"F. c #DA4150",
"G. c #EB4157",
"H. c #ED4459",
"J. c #EE4A5A",
"K. c #F0495B",
"L. c #D94365",
"P. c #D1516E",
"I. c #31748B",
"U. c #2E7F97",
"Y. c #2E7F98",
"T. c #367C95",
"R. c #417A92",
"E. c #36839C",
"W. c #3389A5",
"Q. c #3A97B8",
"!. c #578998",
"~. c #728D91",
"^. c #3C9FC3",
"/. c #3EA6CB",
"(. c #42ADD7",
"). c #4FAFD1",
"_. c #42ADD8",
"`. c #66BCDB",
"'. c #8C8C8C",
"]. c #8C8E91",
"[. c #929393",
"{. c #9D9D9D",
"}. c #B29998",
"|. c #899FA5",
" X c #94A9AE",
".X c #88ABB7",
"XX c #A9ACAD",
"oX c #B2B2B2",
"OX c #BCBCBB",
"+X c #C1AAAA",
"@X c #9AB6C1",
"#X c #A8BAC2",
"$X c #95D3E8",
"%X c #A9D6E4",
"&X c #B5E0ED",
"*X c #C9C9C9",
"=X c #C8D5D8",
"-X c #D4D4D4",
";X c #DADADA",
":X c #C4E5EF",
">X c #DBE4E6",
",X c #C5E6F2",
"<X c #E8E6E9",
"1X c #F5F9F9",
"2X c #FEFEFE",
/* pixels */
"9 T {.*Xo.T K T K K S V V K T K K T K T n C T T K K T K K K T K K T T K T T K K K K T K ! Q Q K T T K Q A T T C T E C A.-X{.C 5 ",
"9 T oX;X+.T T T T Q E T K K E E T T T A E T T ) _ T T T ) ! Q Q E Q T Q Q ) T T T K E ! T ! ! T T Q Q Q E Q R T E ! ~ R.;XoXT 6 ",
"].*X;X;X+.T T T ! ! T ! E ! E ! E ! T T 9 E E ! ! T T Q Q Q K Q T E ) T Q T T Q T T K T ! ! T T E ! ! Q T E 9 ! T T ! @.;X;XOX'.",
"oX;X;XOX) Q T E Q ! A W K T ! K ! T T T T n E ! T Q Q T Q ! T ! K T T T Q Q T T 9 T T T Q Q ! E T ! T E T T T E ! E Q ` *X;X;X{.",
"] X...) E Q T ! ! T ! E E ) T ! E T T E C C T T ! Q T T _ K T T V T E ! T T Q Q T T T T E K V S Q T E E T T T T E E ! E ! ....~ ",
"9 T ! T T T E Q T ! T T E K E E E ! T E T 9 T T 9 T T ! K ! E Q E S T E 9 4 T Q T K T K E V K T T T R E T E K T T ! T E T C ! 9 ",
"9 T T T E T T T Q Q Q Q E T T T Q T E E T V E K T Q T T T ! ! Q E T T T ! 9 8 9 T T T Q V E T ! V T 9 4 T ! T T ! T ) T _ ! V 8 ",
"9 T Q T Q ! Q E T T T ! T T T ! ! ! ) E E C ! T ) ! ! T Q Q T ! E C E E E Q 9 4 Q V V K V E ! T E ! T 9 T E T T T T ! T E T W 9 ",
"9 T A T ! E T ! T Q Q K ! T T T Q T T T T ! E V ! T K ) T T T K E E T E ! R 9 4 4 E T n E T T ! ! Q T 9 T T Q T E T C C Q T _ 8 ",
"6 T R T E Q ! Q ! T T T Q K E T T K Q T ) Q E T ! ! T T ! T Q Q T T T E T 6 6 4 C E T R T C T T Q ! ! T E E Q T T T V T ! T E 8 ",
"9 T E T T T E E ) E T T T ) T T T T E E E E S E K T ) ! ! T T K W W _ R R ! A Q ` ! ! T T T T T E Q E n T T T Q T T T T T T ! 9 ",
"9 ! T E T T C T Q K T Q K Q Q T T T 9 E T W E V T K T ! Q ! ! T T T T ~ ' R ] ' _ ' ` ^ T T T T E T 9 R A T Q ! Q E T T T Q T 9 ",
"9 _ T T T T T T T ! T T E ) Q Q Q T E Q R ! Q T T T T T ) T K Q T R ` ' ` ) ` _ ` ..] _ R R C E T 9 V T T T T ! ! Q T E E T T 8 ",
"9 R T ! T T T T T T T E T ! T T E ) T T _ ! T Q T T T T T Q T K V ^ ' ' _ ) ` ' ' _ { _ _ T E ! S V T E E T T T ! T E ! K T T 8 ",
"9 T T ! T ! Q T T Q Q T T T ) T E Q R ' ] ] T Q T T K Q 9 j g h g g j j j g m ) _ ] _ { ] ~ ` E T T V T ! E W T T E ! ! T E T 4 ",
"9 Q ! ! ! Q Q T E T E T T ! T ! ! E ^ ~ ! ! _ T 9 K K 9 y <.u.i.u.u.u.u.u.i.7.x 4 ` _ ` ` ] _ _ E E 9 ! Q ! Q T ! T T T K T T 6 ",
"9 T T ! ~ E T R T E ! ! Q T Q Q S V _ _ ^ 6 W ~ Q ! 1 = I F m.i.i.i.i.i.i.i.i.p.8.z S _ ' ~ B f h h n T T T T Q Q T E T Q W T 8 ",
"9 T ! T W W ! E E E T T T ! W T E Q ' ] W ^ W R T 1 5 R.^.F M.u.i.i.i.i.i.i.i.N.D H N c ~ B B.u.u.y.1 E Q ! T ! E E ! T ! T T 9 ",
"9 T A T T ! E Q T C E T ! E ! 7 = = * * * = 6 9 1 A /._.(.| b.u.i.i.i.i.i.i.u.N.D >XoXG z 0.B.u.u.u.:.S T T _ ! T T T Q E S 9 8 ",
"9 T R E Q E Q Q T T E T ! T b 1.3.4.4.4.4.3.u r 7 Q././.(.W.h.u.i.i.i.i.i.i.u.v.].1X1X=X@.m b.z.u.u.:.8 K ! Q Q T ! Q ! E E R 8 ",
"9 V T T ! E ! T E E T T ! 1 p u.u.i.i.u.n.n.n.d E./._._./.W.g.j.i.i.i.i.i.i.u.D. X2X2X2X>X2 v.n.u.u.7.c A R T ! K T ! E E V C 8 ",
"9 E T ) ! T T T E ! V T T c M G.G.G.G.V.H.N.p.s W./._._._.W.g.n.i.i.i.i.i.i.n.D. X2X2X2X>X5 S.n.i.u.i.j 9 T T ! ! E T ! T T T 6 ",
"8 ! T E E K A S T T S ! T o.Z.J.K.K.V.n.j.u.i.s E./._._._.W.9.n.n.m.m.m.m.m.K.D. X2X2X1X%XO.q.V.u.i.i.h S T T K ! E ! T E ! T 6 ",
"9 T T E E E T V T T T W T [.Z.V.m.i.p.i.i.i.i.s E._._._./.W.9.t.2.5.5.5.5.5.t.9. X2X2X&X$XW.M J.p.u.i.7.1 T K T T T E ! E T T 8 ",
"9 T ! E E K K ! ) T E T 9 +X8.j.u.u.i.i.i.i.u.s U.(.(.(.(.E.d v A A A 9 A 9 a 7.[  X%X$X`.Y.v J.p.i.i.r.b 9 T T T ! ! E T W ! 9 ",
"9 T T T T T ! Q T ! Q 9 O %.i.i.u.i.i.i.i.i.u.s U.(.(.(.W.c d U ).:X1X1X1X<X~.B 1.>.H T.Q.J 4 e.V.z.z.l.0.T C T ! T ! T ^ ! T 7 ",
"6 T T E ! E ! K Q T T V X #.i.i.i.i.i.i.u.i.u.s T._.(.W.b m s.T.:X2X2X2X2X2X2XoXc n s <.( P Z q.F.F.V.F.N ' T T T E T E T T E 7 ",
"9 T E T E E E ! T T T K O #.i.i.i.i.i.i.u.u.u.a U.(.(.L m .Xh.|.2X2X2X2X2X2X2X#X5 Q.I.5 x ,.P 1 p $.$.y ~ ' E T E T T 9 E E ! 9 ",
"9 T S V E T E E Q E Q > o #.i.i.i.i.r.r.4.$.i p A (.Y C .X`.f.|.2X2X2X2X2X1X%X@X3 /./.Q.I b v p i $.w 5 ! ' ! C T V T T E T ! 7 ",
"9 T E T T T ! T ! T T - X #.y.=.=.&.u p i ;.;.=.1 I y  .`.,XD.|.2X2X2X2X2X%X!. .2 I.U.| G d.<.4.u p w 6 8 V ! ) T V S T T T ! 7 ",
"9 E T T T E T ! ! T T - X M >.y.y.y.y.y.u.j.z.p.d.s i v / [ 8.( [ [ [ [ [ H t.5.:.t.t.k.p.l.j.u.4.u w 3 T 9 ! E ! T E E T E E 9 ",
"V Q T ! T C V E ! T T - . A.L.j.M.m.M.m.B.J.J.M.i.*.1.i 2.j.N.m.M.m.M.m.M.m.u.7.;.m.M.J.K.J.H.M.u.4.0 $ T T T E ! ) 9 T T T T 8 ",
"9 _ T T T T T T T ! T : $ }.L.N.J.J.J.J.J.J.J.J.4.$.;.*.N.J.J.J.J.J.K.K.K.J.V.*.M.J.J.J.J.J.J.J.B.u.e $ K ! V E E K Q T Q K T 8 ",
"9 E T ! T T T T T Q T , 3 <XC.m.J.H.G.H.H.J.B.p.=.2.#.4.N.H.G.M.n.H.H.H.H.G.5.2.p.l.z.l.V.J.J.m.a.r.e $ K S K V ! E Q Q T T T 8 ",
"9 Q E ! T ! Q Q T T ! , 1 P.u.B.m.8.l l l x.N.c.&.u.u.i.i.i.u.u.u.u.u.u.u.y.6.x.w.w.N 0.1.c.c.=.0 %   $ ) T W 9 T ! ! ) T E T 8 ",
"9 ! Q ! E Q Q K T T T > $ k a.c.f & # # + = x -.y.u.i.i.i.i.u.u.u.i.i.i.u.2.y 1 + - - - * u =.y o.{ o , Q ~ Q 9 T T T T T T T 8 ",
"9 T T Q ! T K E T Q ! - < R f t $ > $ # # # @ q u.p.i.p.u.u.u.u.u.u.u.u.u.a @ > - - # # - * r 4 _ A + 7 E E Q 9 ! E T T T E T 8 ",
"9 T ! Q Q ! ! Q Q T T , A ..9 o , # 4 3 # # @ & 1.p.z.V.G.G.H.H.G.G.G.G.e.* > $ > V # # - @ w & > + , T ! Q T ) E 9 ! E E E T 9 ",
"9 T T T T ! E E T S Q A , : $ # , # _ # # # # O >.l.j.l.l.l.l.l.c.a.l.l.6.& > $ E - + + + + r r O < T ` ' W T Q T ! E C ! T V 8 ",
"9 T E T E T E E E T W T Q > o @ > - , 3 # # # & e e e e e e e e e e e e e & - > + V + + - + ; , 4 _ ` ` ' ^ ^ ! T T T T E E R 4 ",
"9 T T T ! E ! T E E T T ! T < > # > > , > # # o   o o o o o     +   o       $ : , , > $ # , 9 ! ` ^ ] ` _ ' _ ! T T T ! ) T Q 8 ",
"9 K T ! Q T T T T ! T T E A 7 4 > $ + + + @ @ @ $ # $ & $ - + + @ + o o o o o + + + + - < C W ` ' _ ` _ ' _ ! T T T Q T Q K K 9 ",
"8 ! E E ! T T T R ! 9 ! R W T T 8 3 > - > > < 3 2 3 3 < < , , $ $ > > > : : $ @ $ $ < 7 R ` { ` ' ] ' { ` ! ! T E ! ! ! T T T 7 ",
"9 T T ! E T T Q ! ! T E T T ! T ! V T T n E T T ~ T T T E T 8 8 4 4 9 4 4 4 4 4 3 3 Q _ ` { ` ` ' ] ' ! ^ Q T ! T E Q T T T T 8 ",
"V S Q T T ! E T E E ! E E ! R ! T C ~ _ _ _ ' ] _ ' _ ^ ' ! T Q 9 E T T T E T T S 9 ! ^ ] ` ] ' _ _ W Q T W T Q ! E Q Q T K T 9 ",
"4 T ~ Q T T T Q ! T T T T T R R W ` ` ` ` ^ _ ] ' ] _ T _ T T T T E T ! T E ! ! V 9 K T ! ^ ! ) _ ) Q T T E T T W ! ! E T ! T 8 ",
"9 K T T T T Q Q T ! ! R E C T R ! ] { _ _ ` _ _ _ _ ! ) T ! ! Q ! T E E T ! W T T 9 9 K T C T C ! T T ! W ! T T T E Q ! E T T 8 ",
"V K T Q ! W R T R T T ! T E T T W { { ` { _ { _ ] ` ! K E E Q T E n T T Q E T T E V V T T ) E ) Q T ! T Q E T T T ! ! W ! ! E 8 ",
"9 E ! K Q E T ! T T T Q T T T ) { ` ' ` ' ' ' ` ' ' T ! T T K ! E T T ! ! E ! ) Q V V ! T W W T W W T T T E Q T ! T ! T E T ! 7 ",
"9 K K T ! T E T Q Q ! A W T ! ^ ` _ ' ` ` ' ' ` { ^ C W T T ! E E E K T E T E T E T K V E Q ! T W ! Q T T T T T T T T T Q T E 6 ",
"9 T E E T E ! Q Q T T T ! W ' ' ` _ _ ] X.' ` ' ^ R ^ ! ! T T T E Q T E T V T K ) ! V E Q T T ! ! T ) T T T ! V T T V C T T _ 8 ",
"9 E T T T T Q ! ! T T T E ] ` ` _ ` { _ ` ` ` ~ R C T ! Q Q Q T T E E K E K E E T T T T V S T T W Q Q T Q T T ) T T T T E T ! 8 ",
"K Q T Q K T K T Q T T W T ' ' ' _ _ _ _ ' { ! E R T T T ) T V E T Q Q Q K T K T T ! T T E E T T T Q E T T T ! Q ! E T T T T E 7 ",
"9 ) T E T T T E T W T T E ] ] ' ] _ ` ] { ] ! T T T T W C E T T K ! E ! T S T E Q ! E ! E T A T E S T Q T T T ! ! ! T T E T T 8 ",
"9 Q T Q T T T T T S T R ^ { ' ' ] ] ' _ ) ! V E C T C T T T T T ! Q T Q T ! E T 9 T Q T E T T T V T E T T Q T T ! T E E T n T 8 ",
"V Q T T T ! E T K Q T T ! _ } _ _ { _ ! T ! T ! T W E E T E E T T T ! Q E E T E E T C Q ! ! ! ! E V T T ! T T T E E ! ! T R T 4 ",
"9 Q ! _ T T T Q K T ! E E ] ` ] ] ' ! Q T E R ! Q Q E T Q T Q Q T Q T T ! Q ! T T T V K T E E ! T Q T Q T Q ! T T T T Q T T T 8 ",
"9 Q K ! ! Q ! K Q T ! ! E ! ` ' ` E E T T n T ! E Q E E S T ! Q 9 9 8 4 9 T T T K T V V E E ! T Q T K ! Q Q Q T ! T T T T T T 8 ",
"9 K ! K Q ! K ! T T T T ! _ ' ` ! C T E 9 n C 9 K T E T V 9 K K 9 9 E T 9 T R ! T K 9 K T E ! T ! E W T T ! Q ) Q T ! E ! ! T 9 ",
"@.].]...! T ) ! ! T E T T ! E T T T T 9 9 9 T 9 K Q K E E T T T Q E Q T ! ! T ! K T 9 9 T T ! T Q T T Q Q T Q ! K Q T T o.'.'.o.",
"oX;X;X*X] ! K K K K T K ! E Q T K K ! T V V E T T Q Q T ! T Q T E Q Q T T T ! T Q V K 4 ! E Q ! S ! E T Q T T ! K T T ..-X;X;X{.",
"@.{.OX*Xo.K T ! T T ! T T Q T T T ! ! T E T K T ! ! ) T T ! T T ! Q Q T T ! Q ! ! K K 4 K K ! Q E K ! T T Q ! T T T E @.;X-X{.+.",
"9 T XX;X@.T ! T Q ! T T ! Q T T T ! ! Q T T K K T E T T K T T T T T T T T T T T K Q K V K E K E E T K E T T T T T T T @.;XXXT 8 ",
"< 4 X.'._ 4 4 4 4 4 4 4 4 4 4 4 4 4 7 3 4 4 4 4 4 4 4 4 4 4 4 4 4 4 4 4 4 4 4 4 4 4 4 4 4 4 4 4 4 4 4 4 4 4 4 4 4 4 4 _ '.X.4 < "
};
