/* XPM */
static char *_16735b286a748b1b56beddeef0fb033JMUHckN1QrNWFFxV[] = {
/* columns rows colors chars-per-pixel */
"64 64 204 2 ",
"   c #130F0F",
".  c #12100F",
"X  c #0F1010",
"o  c #141413",
"O  c #1B1311",
"+  c #161916",
"@  c #1A1A17",
"#  c #171C18",
"$  c #1B1C1B",
"%  c #3B110C",
"&  c #271918",
"*  c #381513",
"=  c #1E201E",
"-  c #20201F",
";  c #1F2020",
":  c #232423",
">  c #272827",
",  c #282927",
"<  c #2B2B2B",
"1  c #372A2C",
"2  c #3B2D2E",
"3  c #3A2E31",
"4  c #303130",
"5  c #343535",
"6  c #383837",
"7  c #383638",
"8  c #3D3D3D",
"9  c #580E0D",
"0  c #4C110B",
"q  c #541107",
"w  c #4B0D14",
"e  c #4C1915",
"r  c #680E09",
"t  c #710D07",
"y  c #730D09",
"u  c #710E0B",
"i  c #671311",
"p  c #75161B",
"a  c #791219",
"s  c #45221F",
"d  c #5B251F",
"f  c #722116",
"g  c #4D1626",
"h  c #4F1C29",
"j  c #5C1224",
"k  c #521924",
"l  c #790B25",
"z  c #661728",
"x  c #7A1429",
"c  c #432627",
"v  c #5B2325",
"b  c #4B2C32",
"n  c #562E38",
"m  c #423433",
"M  c #4B3635",
"N  c #403F3E",
"B  c #533535",
"V  c #6F2931",
"C  c #3F403F",
"Z  c #41403F",
"A  c #2E3C41",
"S  c #3E3C44",
"D  c #533A48",
"F  c #513E53",
"G  c #5E3A53",
"H  c #772845",
"J  c #1C4B56",
"K  c #29434D",
"L  c #3F4040",
"P  c #2E4C56",
"I  c #2A5965",
"U  c #346A7C",
"Y  c #444444",
"T  c #484746",
"R  c #474847",
"E  c #484847",
"W  c #474848",
"Q  c #4A4B4B",
"!  c #514F4E",
"~  c #51504F",
"^  c #59445A",
"/  c #4E5050",
"(  c #4F5050",
")  c #555453",
"_  c #585756",
"`  c #595857",
"'  c #5C5B5A",
"]  c #67465D",
"[  c #605F5E",
"{  c #61605F",
"}  c #4A5E78",
"|  c #446677",
" . c #646464",
".. c #6C6C6C",
"X. c #63777A",
"o. c #717271",
"O. c #7E7E7E",
"+. c #820C16",
"@. c #8C0A14",
"#. c #9C071C",
"$. c #92091A",
"%. c #9C081B",
"&. c #A1071E",
"*. c #9E072C",
"=. c #85172E",
"-. c #951626",
";. c #8D1C38",
":. c #991A3B",
">. c #A90823",
",. c #B30528",
"<. c #BB042B",
"1. c #B30B29",
"2. c #A31326",
"3. c #B4162D",
"4. c #B70733",
"5. c #A91035",
"6. c #BB193D",
"7. c #98202B",
"8. c #8A2737",
"9. c #972638",
"0. c #86303C",
"q. c #A82736",
"w. c #C1042D",
"e. c #C30634",
"r. c #CB0333",
"t. c #D40237",
"y. c #D50138",
"u. c #D40A39",
"i. c #D90E3D",
"p. c #D8143E",
"a. c #A81C42",
"s. c #882D42",
"d. c #A1314D",
"f. c #CF1D43",
"g. c #DB1541",
"h. c #DB1C44",
"j. c #E01E46",
"k. c #C32C42",
"l. c #DA2747",
"z. c #CE3A49",
"x. c #CD3A55",
"c. c #E1264A",
"v. c #E42D4E",
"b. c #E5314E",
"n. c #E32F50",
"m. c #E63352",
"M. c #E63D55",
"N. c #EA3C55",
"B. c #8A5D5A",
"V. c #A9445A",
"C. c #9B635E",
"Z. c #DA404F",
"A. c #D44657",
"S. c #E54056",
"D. c #EB4056",
"F. c #EC4359",
"G. c #EE4A5A",
"H. c #CB4F6C",
"J. c #CE5873",
"K. c #E25474",
"L. c #2D7188",
"P. c #32768D",
"I. c #2F7D96",
"U. c #327C96",
"Y. c #437189",
"T. c #2F88A3",
"R. c #368BA7",
"E. c #3997B8",
"W. c #508795",
"Q. c #4892B4",
"!. c #79AAB9",
"~. c #3E9FC4",
"^. c #3DA4C8",
"/. c #43A6CB",
"(. c #42ACD6",
"). c #43ADD8",
"_. c #4DB1D8",
"`. c #50B3DA",
"'. c #65BBDB",
"]. c #6ABFDF",
"[. c #838484",
"{. c #8B8C8C",
"}. c #899496",
"|. c #909090",
" X c #9C9C9C",
".X c #AD9391",
"XX c #849EA3",
"oX c #A5A5A5",
"OX c #A7B2B6",
"+X c #BABABA",
"@X c #C0AAA9",
"#X c #B9C5C6",
"$X c #8FCFE4",
"%X c #93D3E9",
"&X c #C4C4C4",
"*X c #CACACA",
"=X c #CBD3D4",
"-X c gray84",
";X c #DADADA",
":X c #E4DDDF",
">X c #CBEAF3",
",X c #D2EBF5",
"<X c #F4F7F7",
"1X c #FDFEFD",
/* pixels */
"8 Y oX*X .Y Y Y Y Y Y Y Y Y Y Y Y Y Y Y Y Y Y Y Y Y Y Y Y Y Y Y Y Y Y Y Y Y Y Y Y Y Y Y Q Y Y Y Y Y Y Y Y Y Y Y Y Y Y [.*X|.Y 6 ",
"L Y +X;X..Y Y Y Y R Y Y Y Y Y W Y Y Y Y Y Y Y Q ) Y Y Y Q Q W Y E Y Y Q Y ) Y Y Y Y W E Y Q E Y Y E Y W Y E Y Y Y Q Q {.;XoXY 6 ",
" X*X;X;Xo.Y Y Y E Q Y E E E Y Q Y E Y Y Y Y Y Q E Y Y W W E Y W Y Y Q Y Y Y Y E Y Y Y Y Q E Y Y Y Q E Y Y Y 8 Q Y Y E [.;X;X+XO.",
"&X;X;X+XE R Y E W E Y W Y Y W Y Q Y Y Y 8 Y E Q Y E Y Y Y E Y E Y Y Y Y W W Y Y 8 Y Y Y Y E E Y Y Q Y Y Y Y Y Y Q W E ` *X;X;X|.",
" . . .Q T E Y E E Y Q Y Y Q Y E Y Y Y Y Y Z Y Y Q E Y Y ) Y Y Y Y E Y Q Y Y E E Y Y Y Y Y Y Y Y E Y Y E Y Y Y Y E Y Q Y )  . .Y ",
"8 Y E Y Y Y Y E Y E Y Y Y Y Y Y Y E Y Y Y D Y Y N Y Y Q Y W Y Y Y Y Y R 8 5 Y W Y Y Y Y Y Y Y Y Y Y E Y Y E Y Y Y E Y E Y Y E 6 ",
"Y Y Y Y Y Y Y Y E Y E E Y Y Y Y W Y E Y Y Y Y Y Y Y Y Y Y E Q T E Y Y Y E 8 6 L Y Y Y E 8 W Y Y Y Y Y 5 R E Y Y Q Y Q Y ) Q Y 6 ",
"8 Y W W E Q E Y Y Y Y Q Y Y Y E Q E Q Y Y Y Q Y ( Q Q Y E Y Y Q Y Y Y W Y E 6 5 E 8 8 Y L E Q Y E E Y 8 Y Y Y Y Y Y E Y Y Y E 6 ",
"Y Y Y Y Q Y Y E Y W Y Y E Y Y Y W Z Y Y Y W Y Y Q Y Y ( Y Y Y Y E Y Y E Q Y 6 5 5 Y Y Y E Y Y Q E E Y 8 Y Y Y Y R Y Y Y Y Y ) 6 ",
"8 Y Y Y Y E Q Y Q Y Y Y E N E Y Y Y E Y ) E Y Y E E Y Y Q Y R Y Y Y Y E Y 6 6 5 Y Y Y E Y Y Y Y E W E Y Y Y E Y Y Y Y Y W Y E 6 ",
"Y Y Y Y Y Y Y E ( Y Y Y Y Q Y Y Y Y W Y Y Y Z E Y Y Q E W Y Y Y Q W ) E E Q 8 E ` Y Q Y Y Y Y Y Y E Y Y Y Y Y E Y Y Y Y Y Y Q 6 ",
"Y W Y Y Y Y Y Y E Y Y E Y W W Y Y Y N W Y Y E N Y Y Y Q E W E Y Y Y Y Q _ E ` ` ) ` ) Q Y Y Y Y Y Y 8 Y Y Y E Y E Y Y Y Y E Y 6 ",
"Y ) Y Y Y Y Y Y Y Q Y Y Y Q W E Y Y Y E Y E E Y Y Y Y Y ( Y Y Y Y E ` ` _ Q ) ) _  .` ) W Y Y Y Y 8 Y Y Y W Y Q Q W Y Y E Y Y 6 ",
"8 Y Y E Y Y Y Y Y Y Y Y Y E Y Y W Q Y Y ) Q Y E Y Y Y Y Y E Y Y 8 ) ' ` ) ! ) ` ' ) { ) ) Y E E Y Y Y E Y Y Y Y E Y E E Y Y Y 6 ",
"Y Y Y Q Y Q E Y Y E E Y Y Y ( Y Y E E ` ' ` Y Y b g g h g g g g g h Q  .` ) ` ` ) ` ` ' ' Q ) Y Y Y Y Y Q Y E Y Y E E Q Y Y Y 6 ",
"8 E W E E E W Y Y Y Y Y Y Q Y Q E Y ~ Q Q Q 1 x 4.y.y.t.t.t.t.y.y.;.s ! _ [ ) ) ) _ ) _ ` ' _ ) W Y 8 Q W Q Y Y E Y Y Y Y Y Y 6 ",
"L Y Y Q Q Y Y E Y W Q E D j j j n 8 ) ) B j 5.g.t.y.y.y.y.y.y.y.v.G P * m ) ` ` ` ) ) _ ` ` ' ) ` Y Y Y Y Y Y T E Y Y Y E E Y 6 ",
"Y Y Q Y W Y Q Y E Y Y Y c r.y.t.x.n ) b V F H b.y.y.y.y.y.y.y.y.v.G ^.Y.3 m ' ) ) ) ) ) ) _ ` ) ) Y E Y R Q Y Q Y Y Q Z E Y Y 6 ",
"Y Y Y Y Y Q Y Y Y Y E 6 *.y.y.t.F.V z H R.~.H m.t.y.y.y.y.y.y.t.x.} ).).E.7 2 Y N * % * * * c Y ) ) Y ( Y Y ) E Y Y Y W E Y N 6 ",
"L Y E Y Q W R E Y Y E 6 *.y.y.h.z.b | E.).(.Y.x.y.y.y.y.y.y.y.t.V.R.).)._.!.2 q i ,.<.<.<.<.,.*.M ) ) E Y E R E Y E Q E R Y E 6 ",
"8 Y Y Y E Y E Y Y Y Y b 4.y.y.c.z.6 /.).).).I.x.y.y.y.y.y.y.y.g.d.R.).`.%X].W.p c.c.c.y.t.y.t.t.9 m ' 8 8 Y Y Q L Y E R E 8 Y 6 ",
"L W Y Q Q Y Y Y E Q Y j t.t.y.c.z.7 /.).).).I.A.c.y.y.y.y.y.y.v.:.R.`.%X'.>XXXa i.M.F.N.D.D.D.M.f c _ 8 6 Y Y E Q Y Y Q Y Y Y 6 ",
"8 Q Y E Y Y 8 8 Y Y Y z y.t.u.N.8.U (.).).).U.A.G.v.v.v.v.v.v.c.:.R.%X'.>X1XXXa y.y.h.l.D.G.G.G.C. ._ Y 8 Y Y Y E R Q Y Y E Y 6 ",
"8 Y T Y Y E Y Y Y Y 3 4.y.y.i.G.v T.).).).).I.6.w.1.1.1.1.1.1.e.:.!.].>X1X1XXXa y.y.t.y.u.u.v.S.C.{.Q Q Y Q Y Y Y Y E ( Y Y Y 6 ",
"N Y Q E Y Y Y E Q Y 1 e.y.y.p.G.v T.).).^.P.] 1.i 6 A A A A A v z R.,X1X1X1XXXa y.y.y.y.y.t.y.i.q.@X5 Q ) 6 Y Y Y ( E Y Y Y E 6 ",
"L Y Y Y Y Y Y E Y Y ;.h.j.j.D.q.K J E.U.G -.>.n L./.(.(.(.(./.| a M =X1X1X1XXXa y.y.y.y.y.y.y.y.t.+.o E ` E Y Y Q Y Q Y ( Q Y 6 ",
"8 Y Y E E W Y Y T 8 s.Z.M.Z.Z.9.J K ^ -.p S c Q.).).).).)._.$XW.9.b B #X1X1XXXa y.y.y.y.y.y.y.y.y.+.o ~ _ _ Y Y Y Y Y Y Y Y E 6 ",
"8 Y E Y E E Y Q Y Y 6 e @.@.r m K =.x m P.E.2 Q.).).).).`.%X].W.J.OXs / <X1XXXa t.t.t.y.y.y.y.y.y.+.o T ) ) Y Y Y Y Y Y Y Y Q 6 ",
"8 Y Y Y Q Y R Y E Y Y 5 q @.t i k 7 I E.).^.3 Q.).).)._.$X'.>X}.J.1XOXT }.-XM r u $.<.<.w.y.y.y.y.+.o : Q ` E N Y Y Y Y W Y E 6 ",
"8 Y W Y Y Y Q Y Q Y Y 6 0 r t <.s.s.H } I.L.2 U I.(._.%X'.>X1X}.J.1X1XX.e X.c %.#.&.u r t %.%.#.t.+.o = 6 Y E ( Y Y Y Y Y Y Q 6 ",
"Y Y Y Y Y Y Y E W Y Y 5 0 t w.y.g.h.h.f.e.e.$.4.4.G ^ ^ ^ ] ] G a.] ^ d u p :.u.h.h.u.r.r.r.r.r.7.f . = Y 6 Q Y Q Y Y Y Y Y Y 6 ",
"Y E Y E Y Y Y Y E Y Y $ 9 <.i.n.F.G.G.G.b.v.%.w.u.v.v.v.v.v.v.v.b.p.>.t #.$.t.m.G.G.m.v.v.v.v.g.K.B.. = Y Y Y Y Q Q Z Y E Y Y 6 ",
"Y ) Y Y Y Y Y Y Y E Y $ 9 t.N.G.G.G.G.G.G.G.c.$.N.G.G.G.G.G.G.G.G.G.v.$.%.@.w.D.G.G.G.G.G.G.G.m.K..Xo : Y E 8 Y Y Y E Y Y Z Y 6 ",
"Z Y Y E Y Y Y Y Y Y Y $ 9 w.p.v.G.G.m.h.h.h.p.,.3.D.F.F.F.F.h.v.F.F.v.<.+.,.&.g.m.F.F.F.F.G.G.v.K.:X; > Y Y 8 Y Q Y W Y Y Y Y 6 ",
"Y Y E Q Y Q E Y Y Y Q $   % 0 #.l.l.&.8.0.0.0.k.2.t.y.t.t.t.y.t.t.t.t.y.y.y.#.l.m.6.l l l 5.b.m.t.H.& < Q Y Y 8 Y Q E Q Y Y Y 5 ",
"8 E W E W E R Y Y Y Y : o  . .e &.u & @ # # $ c e <.y.y.y.y.y.y.y.y.y.y.y.y.e.-.z & # # # & j l.r.j $ , W Q E 8 Y Y Y Y Y Y Y 6 ",
"L Y Y E E Y Y Y Y Y E 8 + 8 ) 5 q * # # # # $ : @ a t.t.t.t.t.t.t.t.y.y.y.y.t.9 # @ # $ $ : $ w k E : = Y Y Y 8 Q Y Y Y Y Y Y 6 ",
"Y Y Q Y W Y Q Y E Y Y Y : o : & 0 $ # # # L : $ : * k.D.D.D.D.D.D.D.D.N.g.g.2.& # # # 4 5 $ : o Y  .6 < E E Y Q W Y E Y W Y Y 6 ",
"Y Y Y Y Y E W Y Y Y E Y Y < O q 0 # # # # : R $ : & 3.h.h.h.h.h.h.h.h.h.h.h.-.@ # # # $ ) $ : @ $ $ < ) ` W Y Y Y Q W Y E Y Z 6 ",
"L Y R Y Y W Y Q Y Y E Y W Y < : & # # $ # 8 $ : = & 0 0 0 0 0 0 0 0 0 0 0 0 0 @ # # # < , $ : # o < ) ` ` ~ Q Q Y Y Y Y Y E Y 6 ",
"L Y Y Y Q Y E Y Y W Y Y Q Q L 6 < : # $ , : , $ + o o o o o o X X o o o o o o o $ $ : < < : $ : 6 E ' _ _ ' ) E Y Y Y E Q Y E 6 ",
"L Y Y Q R Y Y Y Y E Y Y Y Y Y Y 6 < : $ + + + $ o o $ $ $ $ o o o o o o o o o o o @ + + + $ > 6 E ) ) ) ) ) E Y Y Y Y Y R Y Y 6 ",
"8 Q Y Y Q Y Y Y E E Z E E W Y Q Y 8 < : : : : : < < < < < < : $ $ ; $ : $ : $ $ o $ - : < 5 Y E ) ' ` [ ) E E Y W Q E E Y Y Y 6 ",
"8 Y Y Q Y Y Y E E Q Y Y Y Y E Y Q Y Q E Y Y Z Y E Y T E E Y 6 6 5 5 6 5 5 5 < 4 < < 6 8 Y ~ ) ) ` ' ` E ) Y Y Q Y W E Y Y Y Y 6 ",
"Y Y T Y Y Q Y R W Y Q E Y Q Y E Y Y ~ ) ) ) ` ' ) ` ) ) ` Q Y E N Y Y Y Y Y Y 8 8 8 E Q ' ) ' ` ) ) E Y Y W Y Y Q Y W E Y Y Y 6 ",
"8 Y ( Y Y Y Y Y E Y Y Y Y Y T E E ) ) ` ) ~ ` ` ` ' ) Y ) Y Y Y Y E Y Q Y W E Q Y 8 Y Y Q ! E ! ) Q Y Y Y Y Y Y Q E Q Y Y E Y 6 ",
"Y Y Y Y Y Y R W Y E E Q W Y Y Y Q _ ' _ ) ) ) ) ) ) Q Q Y E Y E E Y T Y Y E E Y Y 8 8 Y Y Z Y Y Q Y Y Q E Q Y Y Y Y W Q Y Y Y 6 ",
"8 Y Y E E E T Y E Y Y E Y Y Y Y Q ' [ ' ' ) ' ) ' ) E Y T Y E Y Y Y Y Y E Y Y Y E 8 8 Y Y ( E Q Y Y E Y E Y Y Y Y Q E Y Q Q R 6 ",
"8 Y E Y Y Y Y Q Y Y Y W Y Y Y Q ' ) ` _ ` _ ` ) ` ` Y E Y Y Y Q Y Y Y E Q T Q Q W 8 8 E Y E W Y E R Y Y Y W E Y Q Y Q Y Y Y E 6 ",
"C Y Y Y Q Y Y Y W Y W Y E Y E ) _ ) ' ) ) ` _ ) [ ( Y E Y Y E Y Y Y Y Y Y Y E Y Y Y Y Y Y Y Q Y Y E Y Y Y Y Y Y Y Y Y Y E Y Y 6 ",
"8 Y Y T Y Y Q Y E Y Y Y E E ` ) _ ) ) `  .' ) ` ) Y Q E E Y Y Y E Y Y Y Y Y Y Y ) Y Z Y E Y Y E E Y Q Y Y Y E Y Y Y Y Y Y Y ) 6 ",
"Y Y Y Y Y Y Y E E Y Y Y Y ' ) _ ` ` ` _ ) ` ) ! Y Y Y Q E W W Y Y T Y Y Y Y E Y Y Y R Y Y Y Y Y W E Y Y E Y Y Q Y Y Y Y Y Y E 6 ",
"Y Y Y Y Y Y Y Y E Y Y E Y ` ` _ ) ) ) ) ' ' E Y Y Y Y Y ( Y Y Y Y E W Y Y Y Y Y Y E Y Y E Y Y Y Y E Y Y Y Y E Y E Y Y Y Y Y Y 6 ",
"Y ) Y Y Y Y Y Y Y E Y Y E [ ` ` ` ) ) ' ' ` Q Y Y Y Y E Y W Y Y Y Q Y Q Y Y Y W R Q Y Q Y Y Y Y E Y Y W Y Y Y Q Q Q Y Y Y Y Y 6 ",
"Y E Y E Y Y Y Y Y Y Y Y ) ' ` ` ' ` ` ) Q E Y W Y Y Y Y Y Y Y Y E E Y E Y E Y Y Y Y W Y Y Y Y Y Y Y W Y Y E Y Y E Y E T Y 8 Y 6 ",
"Y Y Y Y Y ) Y Y Y E Y Y Q ) { ) ) [ ) E Y E Y E Y Q Y Y Y Y E Y Y Y Q Y Y E Y Y Y Y 8 E E E Q E E Y Y Y Q Y Y Y Y E Q E Y E Y 6 ",
"8 E Q ( E Y E Y Y Y Q Y Y ' ) ' ' ' E Q Y E E Q E W Y Y E Y E Y Y E Y Y E E Q Y Y Y 8 Y Y Y W Q Y Y Y Y Y E Q Y Y Y Y W Y Y Y 6 ",
"Y Y Y Q Y E Y Y E W E Q W ( _ ) ) Y Y Y Y Z Y E Y E Y Y Z Y Y E 8 8 6 5 8 Y Y Y Y Y 8 8 Y E Q Y E Y Y E Y Y Y Y Q Y Y Y Y Y Y 6 ",
"L Y Q Y E W Y Y Y Y Y Y W ) ` ) E Y Y Y 8 8 Y 8 Y Y Y Y Y 8 Y L 6 Y Y Y Y Y E E Y Y 6 Y Y E Q Y Q Y W Y Y E Y ) Y Y Q Y E Y Y 6 ",
"[.|.{.' W Y Q Y E Y Y Y Y ( Y Y E Y Y 8 8 8 L 8 Y Y Y Y W Y Y Y W Y E Y W E Y E Y Y 6 8 Y Y Q Y Y Y Y W Y Y E E Y E Y Y o.{.{. .",
"&X;X;X*X) E Y Y Y 8 Y Z Q Y E Y Y 8 Q Y N 8 Y Y Y E Y W E Y Y Y Y R W Y Y Y E Y E 8 8 6 Y Y E E Y E Y Y Y Y Y E Y Y Y ..-X;X;X|.",
"[.oX+X&X .Y Y E Y Y E Y Y W Y Y Y E E Y E Y Y Y Q E ( Y Y Q Y Y Q Y Y Y Y E E E E Y Y 6 Y Y Y Y Q Y E Y Y E W Y Y Y Y {.;X=X X .",
"C Y +X;Xo.Y E Y R E Y Y Q W Y Y Y E Q Y Y Y Y Y Y Y Y Y Y Y Y Y Y Y Y Y Y Y Y Y Y Y Y 8 Y Y Y Y Y Y Y Y Y Y Y Y Y Y Y {.;X XY 6 ",
"5 6 o.{.Q 5 6 6 6 6 6 6 5 6 6 6 6 6 6 5 6 5 5 6 6 6 6 6 5 5 5 6 5 6 6 6 6 5 6 6 6 6 6 5 5 5 5 6 6 6 6 6 6 6 6 6 6 6 6 ' {. .6 < "
};
