/* XPM */
static char *_b641a19fb7e49b0b265152ba723e68eMD3Dvn6LrbJHhVTg[] = {
/* columns rows colors chars-per-pixel */
"64 64 187 2 ",
"   c #1D0F0D",
".  c #13100F",
"X  c #1D100D",
"o  c #121212",
"O  c #1D1D1D",
"+  c #270F0B",
"@  c #370F0A",
"#  c #23110C",
"$  c #34120C",
"%  c #3C1009",
"&  c #281614",
"*  c #371914",
"=  c #381914",
"-  c #3A1B16",
";  c #361D19",
":  c #37201D",
">  c #1C3132",
",  c #242424",
"<  c #2B2927",
"1  c #2C2B2B",
"2  c #322D2E",
"3  c #3C2E2D",
"4  c #37342D",
"5  c #2B2F30",
"6  c #322E31",
"7  c #2F3334",
"8  c #353535",
"9  c #393535",
"0  c #373837",
"q  c #383837",
"w  c #373838",
"e  c #3C3C3C",
"r  c #450F0A",
"t  c #481007",
"y  c #4A130A",
"u  c #531106",
"i  c #5C1103",
"p  c #5A160B",
"a  c #4E1510",
"s  c #591A14",
"d  c #630F02",
"f  c #6E0D06",
"g  c #700E07",
"h  c #7C0C0C",
"j  c #621002",
"k  c #68120D",
"l  c #641C18",
"z  c #761410",
"x  c #5E211A",
"c  c #701529",
"v  c #42292A",
"b  c #572B30",
"n  c #592D32",
"m  c #493438",
"M  c #403F3E",
"N  c #662C35",
"B  c #6B2B3C",
"V  c #653239",
"C  c #3F403F",
"Z  c #494435",
"A  c #41403F",
"S  c #263E45",
"D  c #543549",
"F  c #6A2E45",
"G  c #6C3A4F",
"H  c #204349",
"J  c #3F4040",
"K  c #3E5D6A",
"L  c #3A6777",
"P  c #444444",
"I  c #484746",
"U  c #474847",
"Y  c #484847",
"T  c #474748",
"R  c #474848",
"E  c #4A4B4B",
"W  c #5E4647",
"Q  c #514F4E",
"!  c #575145",
"~  c #51514E",
"^  c #434251",
"/  c #4F5050",
"(  c #555453",
")  c #585756",
"_  c #5A5857",
"`  c #5C5B5A",
"'  c #625755",
"]  c #605F5E",
"[  c #61605F",
"{  c #4A5560",
"}  c #56666B",
"|  c #556373",
" . c #646362",
".. c #6C6C6C",
"X. c #747474",
"o. c #7A7A7A",
"O. c #83090D",
"+. c #830A10",
"@. c #870B16",
"#. c #9B081D",
"$. c #871316",
"%. c #AC0C0D",
"&. c #852F18",
"*. c #B32413",
"=. c #9A0C24",
"-. c #A21C29",
";. c #B10431",
":. c #A91636",
">. c #9C2830",
",. c #A72731",
"<. c #A62A31",
"1. c #A52B35",
"2. c #BC2839",
"3. c #C00506",
"4. c #C50736",
"5. c #D50136",
"6. c #D50038",
"7. c #D60C3C",
"8. c #DA0F3F",
"9. c #C5183E",
"0. c #A97115",
"q. c #E7750B",
"w. c #883740",
"e. c #AF3646",
"r. c #BA3649",
"t. c #C61F42",
"y. c #D91240",
"u. c #DD1D45",
"i. c #CB2D42",
"p. c #DF264B",
"a. c #D52F48",
"s. c #DC2949",
"d. c #CB3044",
"f. c #C73B4C",
"g. c #D6354C",
"h. c #D83A59",
"j. c #E3324E",
"k. c #E63250",
"l. c #E93E56",
"z. c #8E7877",
"x. c #C34150",
"c. c #C84F56",
"v. c #DB445A",
"b. c #E6425E",
"n. c #E8425A",
"m. c #ED4A5A",
"M. c #D58B35",
"N. c #EAAA39",
"B. c #DEA954",
"V. c #357E98",
"C. c #8A7F81",
"Z. c #D67685",
"A. c #34819A",
"S. c #78898D",
"D. c #7B9499",
"F. c #4A8AA6",
"G. c #4C99B9",
"H. c #3CA1C6",
"J. c #42A3C7",
"K. c #58ADCB",
"L. c #46ADD7",
"P. c #56B6DA",
"I. c #68BCDC",
"U. c #6CC0DF",
"Y. c #838383",
"T. c #8A8B8B",
"R. c #999498",
"E. c #A4A4A4",
"W. c #ACACAC",
"Q. c #B3B3B3",
"!. c #BBBBBB",
"~. c #DBBA82",
"^. c #84C5D7",
"/. c #A9D2DC",
"(. c #89CDE4",
"). c #8FD1E8",
"_. c #97D4E7",
"`. c #A9D8E8",
"'. c #B1DEED",
"]. c #BAE2EE",
"[. c #CACACA",
"{. c #DADADA",
"}. c #F7D4DB",
"|. c #F8D6DD",
" X c #C1E0EC",
".X c #E1EAEA",
"XX c #FEFEFE",
/* pixels */
"8 e Y.E._ e e e e w e e e e e e e e e e e e e e e e e e e w e e e e e e e e e e e e e e P e e e e e e e e e e e e e e  .E.o.e 8 ",
"e P Q.{.X.P P P P P P P P P P P P P P P P P P E E P P P E R R P R R P E P / P P P P P R R R E P P R R E P R E P P E R Y.{.E.P 8 ",
"T.W.{.{.X.P P P R R P P P P P E P E P P P P P R R P P P P R P R P P E P R P P R P P P P R E P P P E R I P P e E P P R o.{.{.W.X.",
"Q.{.{.[.( P P R R E P R P P R P R P P P e P P R P P P R R E P R P P P P R P P P M P P P R U R R P E P P P P P R R R R ` [.{.{.R.",
"..o.o.( P R P P R P E R P E P R P P P P P A R P R E P P ( P P P P P R E P P R P P P P P P P P P R P P U P J P P P P E P _ X.o._ ",
"e P E U P P P R U P P P P P P R I E P P P M P P A P P E P P P P P P P R e 8 M R P P P P P P P P P P R R P E P P P R P R P P P w ",
"e P P P P P P P P R R R R P P R P P R P P e P P P P P P P R E R R P P P P e P J P P P P P R P P e e P 8 P R P P R P R P / E P w ",
"e P P P R E I P P P P E P P P P P R ( P R A R P E E E P R P P E P P P P R R 8 8 E P M P e U E P Y R P e P P R P P P E P P P I 8 ",
"e P P P E P P E P P P P R P P P E P P P R R R P P P P E P P P P P P P R R P M 8 8 P P P R P R R E R P e P P P P P P P P R P E w ",
"e P P Y P U / P R P P P P P P P P P R P E R P P E E P P P P R P P P P P P e 0 8 e R P R P P P R R R R P P P R M P P P P R P E 8 ",
"e P P P P P P R E P P P P R P P P P R P P U P R P P E E R P P P R R ( E P I e P ( R / P P P P P P Y P P P P P E P P P P P P E w ",
"P R P P P P P P R P P P P R P P P P A P P R E P P P P E R R R P P I P Y ) E ` _ ( ( ~ R P P P P P P e P P P E P R P P P P R P w ",
"e ( P P P P P P P R P P P E R R P P P P I R E P P P P P E P P P P P ( ( ) E ( ( (  ._ ) P P P P P e e P P P P E E R P P R P P 8 ",
"e R P R P P P P P P P P P E U R R R P P E R P R P P P P P P P P e E ` _ ( ~ ( ( ` ( ] ( E P P R e P P R P P P P R P P R P P P e ",
"e P P P P E Y P P R P P P P E P P R P ( ` ` P P P P P R M P P P e P (  .` ( ) _ ) _ ( ` ` E ( U P P P P E P P P P R E / P R P 8 ",
"e R E E R R P P P P R P P E P R R R ( ( ~ E P 8 8 e 8 6 8 8 1 8 8 1 8 e e _ e e e _ ( _ _ ` ( Q P R e E R E U P P P P P P P P w ",
"e P P R E P P P P P R E R P R P P P ( ( ~ 8 c r.r.c ;.;.;.2.f.f.x.x.x.x.x.b @.r.r.V ( ) _ ) ` ( ` P P e P P P P E P P P R R P 8 ",
"e P E P P P R P P P P P P R P P P P _ ` Y - h t.2.=.#.#.#.#.#.-.<.<.<.<.<.z #.u.p.e.P ( ( ( _ ) ) P R P P R P / P P E P P P P e ",
"e P P P P R P R Y P R P P P R P R P ( ( : d p k z i.a.a.a.a.a.a.a.a.a.a.a.i.$.@.=.g.V ( ] ( ] _ ( ~ P R P P Q E P R P P R P M 8 ",
"e P R P P R P R R P R P R T R P P R E e - l K a <.7.5.5.5.5.5.5.5.5.5.5.5.p.p.:.D 9.N ( _ `  .` ( ( E R P I E P P E R E P P R 8 ",
"e P P P E P E P P R P P E R P J J R w > : l { 7 <.7.6.6.6.6.6.6.6.6.6.5.5.k.p.D F s , > P ] ) ( ` ` ` P e Y R E J P R P R e P w ",
"e P P E R P P P R / P P P P P R P P S A.w l L H ,.7.6.6.6.6.6.6.6.6.6.6.y.l.p.R.^ k z.S.5 ( ` _ ( _ ( e e R P R E P P P P P P w ",
"e E P R R P P P P P P R P P R R P R 1 6 y x A.H <.7.6.6.6.6.6.6.6.6.6.6.u.n.p.}.D.e.l q e _ _ ) ) ` _ C e P P P P R R P P R P w ",
"e P P R P P P P R R P R P P P P E P e P * x A.H <.7.6.6.6.6.6.6.6.6.6.6.u.n.s.|.D.t.N ( ) ( ) ( ` _ ( I A E P P R P E R P P P 8 ",
"P P E P P P P R R P E P P E P E R A P P * x V.H ,.7.6.6.6.6.6.5.6.6.5.u.n.m.p.|.D.t.N ( ( ` _ _ _ ( ) E ( e P P P R P P P P R w ",
"e P P P P P R R P E P Y U P P P e e P P * x A.H =.i.d.d.d.d.d.i.d.d.d.f.f.g.7.|.D.t.N _ ( ` _ [ ) ) ~ Q _ R P P E P E P ( E P 8 ",
"e P P P R P P P R P P P P R P P P P P P - x V.v h s w w w e w e e e e e e s @.Z.D.t.N ( ( ` ] ( ` ` ~ ` ) ) P P P P R P P P R 8 ",
"e P R P R R P R P P P E P P P R R R E 8 i p e j j F.H.H.J.^.K./..X.X.X.X.X} j $.G t.N P ( ) _ _ ` ` ( ( ) ( P P P P P P R P R w ",
"e P P P R P P R P P R P P P P e P A P 1 i p 3 j j G.L.L.(.I.'.XXXXXXXXXXXX} j h B :.l 9 P R Q ( ( _ ` Y ~ ) E P P P P P R P ( w ",
"e P P I P P ( R R P P P R e e e P P P : i i a d j G.L.(.I.'.XXXXXXXXXXXXXX} j f l -.v.3 P P A P R E R P e Y R R P P P P P P E e ",
"e P P P P P P E R P P P e P P P P P P y d p 3 j s G.).U.].XXXXXXXXXXXXXX].L p h F t.m.w.J P P P P R R A J q R P E P P P P P P w ",
"P R P R P P P P R P P P e P P P P P ; j d p 3 j | (.I.'.XXXXXXXXXXXXXX]._.K.3 h F 9.l.f.m P P P P P P R P P R U R R M P P R P w ",
"e ( P P P P P P P R P P P E P R R P - j j p 3 j C.U.'.XXXXXXXXXXXXXX]._.P.H.3 h F 4.j.m.n P P P P P P P P P e R R P P P R P P 8 ",
"e P P R P P P P P P P P P E e P R 8 i j j p 3 d | `.XXXXXXXXXXXXXX X`.I.L.J.v h F 4.j.m.b P P R P P P R P P P C E P P R P P P w ",
"e P P R P E R P P R R e P P 0 P P 6 i j d 2.g.g.h.b.b.b.b.b.b.b.b.h.v.h.h.h.g.j.>.4.k.m.n R E P R P P P E P P e P R E ( P R P 8 ",
"e R R E R R R P P P R q P E e P E 2 i j d ;.5.6.5.5.6.5.5.5.5.5.5.5.5.5.5.5.5.8.,.4.j.m.b P P E P R P R P R R e P P P P P P P 8 ",
"e P P R R P P P P P E P J P P P e 1 i j @.5.5.6.5.6.6.6.6.6.6.6.6.5.5.6.6.5.5.6.s.#.k.m.b R E P R P P R P R P e ( P P P P P P 8 ",
"e P E P P R E P P P P P P E P P e 1 u j g +.+.+.+.+.+.+.+.+.+.+.+.+.+.+.+.+.+.+.$.@.k.m.b E E P E P P P P P P R R P R P R R P e ",
"e P P P P R R R P P R P P P P P R P ; j u % % % u r % % % % % % % % % % t t % % % #.j.1.m P R P R P R ( _ E P P P R R P E P P e ",
"e P R P P P P R R P P P R P E P P P ; j i u % o @ + X X   X   X     X X @ # X y =.7.g.a T P R P P ( ( _ ) Q E E P P P P R P P 8 ",
"e P P P E P E P P R P P E E P P P ( ; j j r % X . % j j j j j j j j j j % o # r c 4.+.2 ( ( E ( Q Q ] _ _ _ ~ R P P P E R P R 8 ",
"e P P R P P P P P P P P P A P P P P e X   O.3.M.~.< % j j u $ $ i j i y   0.B.*.c.v & 6 ( ( ( ( ` ( ) ) ) ) E P P P P P R P P w ",
"e E P R E P P P P E P P U R P E P E e o o y %.q.N.Z 1 $ $ $ - - - - & o ( M.N.&.%.W , R ` ` ` ( ( ` _ ` ( Y E P P E R R P P P 8 ",
"e P P R P P P P R R P R P P R P R P E e o , 3 m 4 P E ..X.X.W.!.!.!.E...X.! ! ' ' 1 O ) _ [ ) ) ) ` ) E ( R P E P R P P P P P w ",
"P P P P P E P R P P E R P E P R P P E ( O o O O O e E e P P e e e e A e ( 1 , O o o e ( ` ( _ _ ( _ R R P R P P R P T P P P P w ",
"e P E P P P P R R P P P P P P E I ~ ( _ q O o o o 1 1 o o o o o o o o o 8 O o o o 6 P P E ( ( ( ( ( P P P P P P R R R R P R P w ",
"e P P P P P R R P R R Y R e P P R ` ` ( ( Q e , < , , , , , , , , , , , , , 8 J e e e P P P P P ( Y P E U E P P P P R R P P P 8 ",
"e P P R R R Y P R P P P P R P P R _ _ ) _ ( ` ( ) ( P P P P R P U P P P R P R P R e e P P E R / P P E P R P P P P / R P P R R w ",
"e P R P P R P E P P P E P P P E ` _ ` ( _ ( _ ( ` _ E P P P P E P P P R P R R E R e P R P P P P Y R P P P R P P E P E P R P R 0 ",
"e P P P E P P R P P P P R P R Q ) ( _ ( ) _ ( ( ` ( P R P P R P P P P P R P P P P P M P P P ( P P R P I P P P P P P P P R P P 8 ",
"e P P P P P E R R P P P R P _ ) ) ( ) )  .` ( ` ( P E R E P P P P P P P P P P P ( R P P R P P R E P R P P P E P R P P P P P ( w ",
"e P P P P P P E E P P P P ` _ ( ) ) _ _ ) _ ` ~ R P P E P R R P P P P P P P R P P P P R P P P P R U R P R P P Y P P P P R P R e ",
"P R P P P P P P E P P R P _ ) ) ( ) ( ( _  .R P P P P P E P P P P P R P P P P P P R P P P R P P P R P P P P R P R P P P P P P w ",
"e E P R P P P P P E P P P ` ` ) _ ( ( _ ` _ ( P P P P P P R P P P ( P P P P P P P E P E P P P P P P P R P P R R E R P P I R P 8 ",
"e E P R P P P P P P P P E ` ` ] ` _ ` ( ( E P P P P P P P P P P R R P E P P P P P P P P R P P P P P R R P R P P P P R R P M P 8 ",
"M U P P P R P P P R P P E ( [ ) (  .( E P E P P P E P P P R P P P P R P P E P P P P P P R R R E R P P P R P P P E P R P P R P 8 ",
"e P E ( P P R P P P E P P _ ( ` ] ` E R P P P ( R P P P P P R P P T P P E P E P P P M P P P R R P P P P P P R P P R P E P P P 8 ",
"e R P I P P P P P P I E P ( ( ) ) R P P P A P R P R R P P P E R P e e q e P P P P P e J P R E P R P P R R E P P E P P P P P P 8 ",
"e P R P R P P R P P R P R ( _ _ E P P P e P P P P P P P P P e e e e e P P P R E P e e e P R R P E P P P P P P ( P P R P P R P e ",
" .X.X._ R R E R P P P P P ( Y P R P P P e e e e P P P P R P P P P P R P R R P R P P e e P P E P R P P R R P I R P R R P ` X.X._ ",
"Q.{.{.[.( E P P P e P P E P R P P e R P e e P P P R P P R P P P P R R P P P E P P e e 8 Y P P R P R P P P P R R P P P _ [.{.{.R.",
"T.Q.!.!. .P P P P P R P R P P P P R E P P P P P R R E P R R P P E P R P P E R Y R P P 8 P P R P E P R P P R R P P P P S.{.{.W.X.",
"e P W.{.o.P E P P R P P E E P P P E E P P P P P P P P P P P P P P P P P P P P P P P P e P P P P P P P P P P P P P P P Y.{.W.P 0 ",
"8 e T.Q. .e e e e e e e e e e e e e e e e e e e e e e e e e e e e e e e e e e e e e e e e e e e e e e e e e e e e e e ..Q.Y.e 8 "
};
